<svg width="1226" height="776" viewBox="0 0 1226 776" fill="none" xmlns="http://www.w3.org/2000/svg">
<mask id="mask0_533_4167" style="mask-type:alpha" maskUnits="userSpaceOnUse" x="0" y="0" width="1226" height="776">
<path d="M0 0H1206C1217.05 0 1226 8.9543 1226 20V756C1226 767.046 1217.05 776 1206 776H0V0Z" fill="white"/>
</mask>
<g mask="url(#mask0_533_4167)">
<path d="M11.5353 1127.69C-7.93331 1201.15 -59.5059 1248.57 -87.6363 1262L-188 1262C-123.395 1221.21 -77.4992 1144.35 -77.4992 1081.6C-77.4992 982.904 -46.8239 920.999 81.3278 900.261C197.232 881.504 248.051 890.423 321.605 694.362C368.908 568.273 477.264 540.411 628.974 568.273C795.37 598.833 890.725 564.112 941.075 537.105C1075.92 464.776 1110.85 565.591 1142 627.273L1142 675.429C1142 675.429 1143.71 692.138 1066.66 627.273C970.354 546.191 736.783 723.411 579.981 661.778C492.197 627.273 437.306 667.565 412.99 708.355C388.674 749.144 338.134 877.482 200.343 914.79C62.5515 952.098 40.1425 1019.75 11.5353 1127.69Z" fill="url(#paint0_linear_533_4167)"/>
</g>
<defs>
<linearGradient id="paint0_linear_533_4167" x1="-17" y1="1038.5" x2="920.948" y2="591.784" gradientUnits="userSpaceOnUse">
<stop stop-color="#FF005C" stop-opacity="0.97"/>
<stop offset="0.646552" stop-color="#FF005C"/>
<stop offset="1" stop-color="#FF005C" stop-opacity="0"/>
</linearGradient>
</defs>
</svg>
