<svg width="1141" height="489" viewBox="0 0 1141 489" fill="none" xmlns="http://www.w3.org/2000/svg">
<path d="M10.5353 354.692C-8.93331 428.153 -60.5059 475.569 -88.6363 489L-189 489C-124.395 448.21 -78.4992 371.351 -78.4992 308.603C-78.4992 209.904 -47.8239 147.999 80.3278 127.261C196.232 108.504 247.051 117.423 320.605 -78.6376C367.908 -204.727 476.264 -232.589 627.974 -204.727C794.37 -174.167 889.725 -208.888 940.075 -235.895C1074.92 -308.224 1109.85 -207.409 1141 -145.727L1141 -97.5709C1141 -97.5709 1142.71 -80.8618 1065.66 -145.727C969.354 -226.809 735.783 -49.5893 578.981 -111.222C491.197 -145.727 436.306 -105.435 411.99 -64.6455C387.674 -23.8558 337.134 104.482 199.343 141.79C61.5515 179.098 39.1425 246.749 10.5353 354.692Z" fill="url(#paint0_linear_533_4166)"/>
<defs>
<linearGradient id="paint0_linear_533_4166" x1="-18" y1="265.5" x2="919.948" y2="-181.216" gradientUnits="userSpaceOnUse">
<stop stop-color="#FF005C" stop-opacity="0.97"/>
<stop offset="0.646552" stop-color="#FF005C"/>
<stop offset="1" stop-color="#FF005C" stop-opacity="0"/>
</linearGradient>
</defs>
</svg>
