<svg width="16" height="20" viewBox="0 0 16 20" fill="none" xmlns="http://www.w3.org/2000/svg">
<path d="M15 19C15 18.663 14.9818 18.3293 14.9463 18M1 1C1 1.33701 1.01817 1.67071 1.0537 2M1 19C1 14.8566 3.74671 11.2152 7.73067 10.077L8.26933 9.92305C12.2533 8.78477 15 5.14339 15 1M11 2H1.0537M5 18H14.9463M14.9463 18C14.7899 16.5509 14.2974 15.187 13.5379 14C12.3482 12.1405 10.5033 10.7152 8.26933 10.077L7.73067 9.92305C5.49674 9.28478 3.65184 7.8595 2.46206 6C1.70259 4.81301 1.21006 3.44909 1.0537 2" stroke="#FFF500" stroke-width="1.5" stroke-linecap="round" stroke-linejoin="round"/>
</svg>
