<svg width="589" height="426" viewBox="0 0 589 426" fill="none" xmlns="http://www.w3.org/2000/svg">
<path d="M254.494 425.778C253.52 425.778 252.795 425.553 252.319 425.103C251.865 424.63 251.639 423.909 251.639 422.94V382.872C251.639 381.881 251.865 381.161 252.319 380.71C252.795 380.26 253.52 380.034 254.494 380.034C255.492 380.034 256.217 380.26 256.67 380.71C257.124 381.161 257.35 381.881 257.35 382.872V422.94C257.35 423.909 257.124 424.63 256.67 425.103C256.217 425.553 255.492 425.778 254.494 425.778Z" fill="#FF015C"/>
<path d="M274.348 425.778C272.444 425.778 271.492 424.832 271.492 422.94V382.805C271.492 380.913 272.444 379.967 274.348 379.967C275.322 379.967 276.274 380.53 277.204 381.656L304.537 416.657H303.109V382.805C303.109 380.913 304.061 379.967 305.965 379.967C307.868 379.967 308.82 380.913 308.82 382.805V422.94C308.82 424.832 307.868 425.778 305.965 425.778C304.945 425.778 303.993 425.215 303.109 424.089L275.776 389.089H277.204V422.94C277.204 424.832 276.252 425.778 274.348 425.778Z" fill="#FF015C"/>
<path d="M325.807 425.778C323.903 425.778 322.952 424.832 322.952 422.94V382.805C322.952 380.913 323.903 379.967 325.807 379.967H350.829C351.713 379.967 352.404 380.226 352.902 380.744C353.424 381.239 353.684 381.926 353.684 382.805C353.684 384.697 352.732 385.643 350.829 385.643H328.663V399.832H342.33C344.233 399.832 345.185 400.778 345.185 402.67C345.185 404.562 344.233 405.508 342.33 405.508H328.663V422.94C328.663 424.832 327.711 425.778 325.807 425.778Z" fill="#FF015C"/>
<path d="M363.588 425.778C362.614 425.778 361.889 425.553 361.413 425.103C360.959 424.63 360.733 423.909 360.733 422.94V382.872C360.733 381.881 360.959 381.161 361.413 380.71C361.889 380.26 362.614 380.034 363.588 380.034C364.586 380.034 365.311 380.26 365.764 380.71C366.217 381.161 366.444 381.881 366.444 382.872V422.94C366.444 423.909 366.217 424.63 365.764 425.103C365.311 425.553 364.586 425.778 363.588 425.778Z" fill="#FF015C"/>
<path d="M383.442 425.778C381.538 425.778 380.586 424.832 380.586 422.94V382.805C380.586 380.913 381.538 379.967 383.442 379.967C384.416 379.967 385.368 380.53 386.297 381.656L413.631 416.657H412.203V382.805C412.203 380.913 413.155 379.967 415.058 379.967C416.962 379.967 417.914 380.913 417.914 382.805V422.94C417.914 424.832 416.962 425.778 415.058 425.778C414.039 425.778 413.087 425.215 412.203 424.089L384.87 389.089H386.297V422.94C386.297 424.832 385.346 425.778 383.442 425.778Z" fill="#FF015C"/>
<path d="M434.901 425.778C433.927 425.778 433.201 425.553 432.725 425.103C432.272 424.63 432.046 423.909 432.046 422.94V382.872C432.046 381.881 432.272 381.161 432.725 380.71C433.201 380.26 433.927 380.034 434.901 380.034C435.898 380.034 436.624 380.26 437.077 380.71C437.53 381.161 437.757 381.881 437.757 382.872V422.94C437.757 423.909 437.53 424.63 437.077 425.103C436.624 425.553 435.898 425.778 434.901 425.778Z" fill="#FF015C"/>
<path d="M465.701 425.778C464.75 425.778 464.036 425.542 463.56 425.069C463.084 424.596 462.846 423.886 462.846 422.94V385.71H449.655C448.703 385.71 447.989 385.474 447.513 385.001C447.037 384.528 446.799 383.818 446.799 382.872C446.799 381.926 447.037 381.217 447.513 380.744C447.989 380.271 448.703 380.034 449.655 380.034H481.748C482.7 380.034 483.414 380.271 483.889 380.744C484.365 381.217 484.603 381.926 484.603 382.872C484.603 383.818 484.365 384.528 483.889 385.001C483.414 385.474 482.7 385.71 481.748 385.71H468.557V422.94C468.557 423.841 468.308 424.54 467.809 425.035C467.333 425.531 466.631 425.778 465.701 425.778Z" fill="#FF015C"/>
<path d="M508.554 425.778C503.364 425.778 499.523 424.551 497.03 422.096C494.559 419.618 493.324 415.801 493.324 410.643V382.805C493.324 381.859 493.562 381.149 494.038 380.676C494.514 380.203 495.228 379.967 496.18 379.967C497.132 379.967 497.846 380.203 498.321 380.676C498.797 381.149 499.035 381.859 499.035 382.805V410.643C499.035 413.053 499.319 414.945 499.885 416.319C500.475 417.693 501.46 418.672 502.843 419.258C504.226 419.821 506.129 420.103 508.554 420.103H516.714C519.139 420.103 521.042 419.821 522.425 419.258C523.807 418.672 524.782 417.693 525.349 416.319C525.938 414.945 526.233 413.053 526.233 410.643V382.805C526.233 381.859 526.471 381.149 526.946 380.676C527.422 380.203 528.136 379.967 529.088 379.967C530.04 379.967 530.754 380.203 531.23 380.676C531.706 381.149 531.944 381.859 531.944 382.805V410.643C531.944 415.801 530.709 419.618 528.238 422.096C525.768 424.551 521.926 425.778 516.714 425.778H508.554Z" fill="#FF015C"/>
<path d="M548.577 425.778C546.673 425.778 545.721 424.832 545.721 422.94V382.805C545.721 380.913 546.673 379.967 548.577 379.967C549.823 379.967 550.866 380.575 551.704 381.791L567.751 405.778L566.527 405.981L582.709 381.791C583.48 380.575 584.636 379.967 586.177 379.967C587.718 379.967 588.488 380.913 588.488 382.805V422.94C588.488 424.832 587.537 425.778 585.633 425.778C583.729 425.778 582.777 424.832 582.777 422.94V388.48L584.545 389.089L570.266 409.967C569.428 411.184 568.272 411.792 566.799 411.792C565.779 411.792 564.85 411.184 564.011 409.967L549.733 389.089L551.432 389.562V422.94C551.432 424.832 550.48 425.778 548.577 425.778Z" fill="#FF015C"/>
<path fill-rule="evenodd" clip-rule="evenodd" d="M101.622 94.8459C127.813 94.8459 149.045 73.6139 149.045 47.423C149.045 42.3243 148.24 37.4137 146.751 32.811C145.787 29.8327 147.334 26.4776 150.394 25.8152C160.188 23.6946 170.356 22.5778 180.786 22.5778C259.735 22.5778 323.736 86.579 323.736 165.528C323.736 183.563 320.397 200.817 314.302 216.707C313.373 219.129 310.699 220.311 308.148 219.835C305.992 219.433 303.768 219.223 301.495 219.223C281.57 219.223 265.417 235.376 265.417 255.302C265.417 261.266 266.864 266.892 269.426 271.849C270.618 274.153 270.256 277.054 268.205 278.642C244.037 297.347 213.711 308.479 180.786 308.479C124.094 308.479 75.1097 275.478 51.9963 227.638C50.7762 225.112 52.0112 222.142 54.4249 220.714C65.0393 214.433 72.1572 202.868 72.1572 189.641C72.1572 172.217 59.8058 157.678 43.3811 154.302C40.6361 153.738 38.5033 151.334 38.8326 148.551C41.6332 124.884 50.2158 102.988 63.1287 84.3159C64.9058 81.7463 68.5883 81.5907 70.9713 83.6111C79.2373 90.6192 89.936 94.8459 101.622 94.8459ZM49.9595 67.4012C52.3764 64.184 57.472 65.2329 59.2902 68.8226C60.0497 70.322 60.8866 71.7757 61.7955 73.1784C63.026 75.0772 63.0459 77.5538 61.7181 79.3859C47.1804 99.4452 37.5877 123.322 34.7288 149.228C34.4531 151.727 32.4218 153.658 29.9438 154.082C28.5666 154.318 27.2161 154.632 25.8969 155.019C22.07 156.143 17.6501 153.444 18.0369 149.474C21.0201 118.856 32.4471 90.7124 49.9595 67.4012ZM54.8229 55.1362C55.0766 56.6867 54.684 58.2841 53.6769 59.49C31.2688 86.3221 17.1978 120.358 15.4447 157.616C15.3709 159.185 14.5758 160.626 13.3562 161.616C5.20744 168.23 0 178.328 0 189.641C0 205.19 9.83592 218.441 23.6251 223.513C25.0984 224.055 26.3178 225.159 26.8974 226.618C51.2062 287.799 110.945 331.053 180.786 331.053C221.767 331.053 259.269 316.161 288.176 291.493C289.523 290.344 291.36 289.983 293.081 290.394C295.78 291.039 298.598 291.38 301.495 291.38C321.421 291.38 337.574 275.227 337.574 255.302C337.574 248.7 335.801 242.513 332.705 237.19C331.815 235.66 331.633 233.796 332.347 232.177C341.327 211.785 346.313 189.238 346.313 165.527C346.313 74.1088 272.204 0 180.786 0C163.421 0 146.68 2.67404 130.953 7.6328C129.454 8.10541 127.827 7.8607 126.49 7.03542C119.26 2.57412 110.741 0 101.622 0C75.4308 0 54.1988 21.232 54.1988 47.423C54.1988 50.0494 54.4123 52.6259 54.8229 55.1362ZM137.462 16.3669C134.825 13.3264 135.792 8.21601 139.688 7.20747C152.82 3.80844 166.592 2 180.786 2C271.099 2 344.313 75.2134 344.313 165.527C344.313 186.655 340.305 206.848 333.01 225.387C331.638 228.871 326.964 229.476 324.042 227.134C322.95 226.259 321.806 225.446 320.615 224.7C318.318 223.262 317.171 220.414 318.136 217.882C324.339 201.619 327.736 183.97 327.736 165.528C327.736 84.3698 261.944 18.5778 180.786 18.5778C168.919 18.5778 157.38 19.9844 146.328 22.64C144.135 23.167 141.859 22.212 140.57 20.3605C139.604 18.9735 138.567 17.6405 137.462 16.3669ZM281.87 294.078C284.811 291.762 284.049 287.11 280.972 284.978C279.821 284.181 278.72 283.319 277.672 282.397C275.636 280.605 272.575 280.324 270.427 281.981C245.619 301.105 214.531 312.479 180.786 312.479C122.086 312.479 71.4253 278.062 47.8815 228.307C46.8092 226.041 44.2703 224.876 41.7945 225.27C39.9328 225.566 38.0237 225.72 36.0786 225.72V225.72C32.7538 225.72 30.0091 229.028 31.3633 232.064C56.8513 289.216 114.166 329.053 180.786 329.053C218.944 329.053 254.049 315.984 281.87 294.078Z" fill="#FF015C"/>
<path d="M207.648 311.035C207.648 330.919 191.521 347.046 171.637 347.046C151.753 347.046 135.627 330.919 135.627 311.035C135.627 300.295 140.324 290.65 147.792 284.059C154.149 278.438 171.637 259.368 163.809 224.924C163.809 224.924 179.466 256.237 199.913 288.74C204.078 295.347 207.648 302.612 207.648 311.035Z" fill="url(#paint0_linear_1398_22764)"/>
<path d="M353.253 102.807C353.253 131.772 329.768 155.257 300.803 155.257C284.176 155.257 176.63 127.936 191.99 129.423C240.525 134.12 248.353 115.145 248.353 102.807C248.353 73.8424 271.838 50.3574 300.803 50.3574C329.768 50.3574 353.253 73.8424 353.253 102.807Z" fill="url(#paint1_linear_1398_22764)"/>
<path d="M222.524 173.26C222.524 189.856 212.598 202.866 200.323 212.292C171.64 234.321 195.125 281.29 195.125 281.29C162.246 240.583 170.075 223.361 152.038 211.117C139.873 202.851 131.716 189.073 131.716 173.26C131.716 148.178 152.038 127.855 177.12 127.855C209.216 127.855 292.196 154.472 292.196 154.472C257.752 149.775 222.524 160.719 222.524 173.26Z" fill="url(#paint2_radial_1398_22764)"/>
<path d="M256.813 345.178C251.984 343.315 250.535 340.01 252.467 335.263L295.567 229.619C297.378 225.653 300.215 223.67 304.078 223.67H304.44C308.364 223.85 311.02 225.833 312.409 229.619L356.233 335.263C358.165 340.01 356.777 343.315 352.068 345.178C347.299 347.041 343.979 345.659 342.108 341.032L332.329 317.415H275.918L266.592 341.032C264.721 345.719 261.461 347.101 256.813 345.178ZM281.894 302.272H326.081L303.535 247.647L281.894 302.272Z" fill="white"/>
<path d="M462.176 346.26C460.184 347.522 458.282 347.912 456.471 347.432C454.66 346.951 453.121 345.719 451.853 343.736L423.784 297.224H398.431V338.328C398.431 343.375 395.896 345.899 390.825 345.899C385.754 345.899 383.219 343.375 383.219 338.328V231.242C383.219 226.194 385.754 223.67 390.825 223.67H433.201C444.247 223.67 452.699 226.614 458.554 232.504C464.47 238.333 467.427 246.746 467.427 257.743V263.151C467.427 272.706 465.194 280.338 460.727 286.047C456.26 291.695 449.801 295.211 441.35 296.593L465.073 335.984C467.367 340.19 466.401 343.616 462.176 346.26ZM398.431 282.08H433.201C440.082 282.08 444.972 280.638 447.869 277.754C450.767 274.869 452.216 270.002 452.216 263.151V257.743C452.216 250.952 450.767 246.115 447.869 243.23C444.972 240.286 440.082 238.813 433.201 238.813H398.431V282.08Z" fill="white"/>
<path d="M527.098 345.899C516.775 345.899 508.717 343.826 502.922 339.68C497.187 335.533 493.595 329.133 492.147 320.48C491.905 317.836 492.449 315.853 493.777 314.531C495.105 313.209 497.036 312.548 499.572 312.548C502.107 312.548 503.948 313.149 505.095 314.35C506.302 315.552 507.117 317.415 507.54 319.939C508.445 324.086 510.377 326.94 513.335 328.502C516.353 330.005 520.941 330.756 527.098 330.756H553.175C560.962 330.756 566.244 329.374 569.021 326.609C571.858 323.785 573.277 318.557 573.277 310.925C573.277 303.173 571.828 297.885 568.93 295.061C566.033 292.176 560.781 290.734 553.175 290.734H530.72C519.311 290.734 510.83 287.97 505.276 282.441C499.783 276.852 497.036 268.379 497.036 257.022C497.036 245.724 499.753 237.341 505.185 231.873C510.679 226.404 519.13 223.67 530.539 223.67H552.089C561.687 223.67 569.202 225.623 574.635 229.529C580.128 233.435 583.599 239.414 585.048 247.467C585.41 250.051 584.927 252.034 583.599 253.416C582.271 254.738 580.279 255.399 577.623 255.399C575.208 255.399 573.397 254.768 572.19 253.506C570.983 252.244 570.198 250.411 569.836 248.008C568.87 244.462 567.029 242.058 564.312 240.796C561.596 239.474 557.521 238.813 552.089 238.813H530.539C523.295 238.813 518.435 240.105 515.961 242.689C513.486 245.213 512.248 249.991 512.248 257.022C512.248 264.113 513.516 268.98 516.051 271.624C518.586 274.268 523.476 275.59 530.72 275.59H553.175C565.067 275.59 573.91 278.475 579.705 284.244C585.561 290.013 588.488 298.906 588.488 310.925C588.488 322.884 585.591 331.717 579.796 337.426C574.001 343.075 565.127 345.899 553.175 345.899H527.098Z" fill="white"/>
<defs>
<linearGradient id="paint0_linear_1398_22764" x1="141.89" y1="304.773" x2="180.248" y2="250.757" gradientUnits="userSpaceOnUse">
<stop offset="0.28125" stop-color="#BBFD00"/>
<stop offset="1" stop-color="#5E8000"/>
</linearGradient>
<linearGradient id="paint1_linear_1398_22764" x1="271.838" y1="103.59" x2="249.136" y2="139.6" gradientUnits="userSpaceOnUse">
<stop stop-color="#BBFD00"/>
<stop offset="1" stop-color="#638308"/>
</linearGradient>
<radialGradient id="paint2_radial_1398_22764" cx="0" cy="0" r="1" gradientUnits="userSpaceOnUse" gradientTransform="translate(162.975 166.258) rotate(36.2292) scale(77.1013 80.6417)">
<stop offset="0.335028" stop-color="#FF005C"/>
<stop offset="1" stop-color="#990037"/>
</radialGradient>
</defs>
</svg>
