<svg width="18" height="20" viewBox="0 0 18 20" fill="none" xmlns="http://www.w3.org/2000/svg">
<path d="M7.5 19H1C1 15.4735 3.60771 12.5561 7 12.0709M13.4976 14.2119C12.7978 13.4328 11.6309 13.2232 10.7541 13.9367C9.87737 14.6501 9.75394 15.843 10.4425 16.6868C10.8312 17.1632 11.7548 17.9983 12.4854 18.6353C12.8319 18.9374 13.0051 19.0885 13.2147 19.1503C13.3934 19.203 13.6018 19.203 13.7805 19.1503C13.9901 19.0885 14.1633 18.9374 14.5098 18.6353C15.2404 17.9983 16.164 17.1632 16.5527 16.6868C17.2413 15.843 17.1329 14.6426 16.2411 13.9367C15.3492 13.2307 14.1974 13.4328 13.4976 14.2119ZM12 5C12 7.20914 10.2091 9 8 9C5.79086 9 4 7.20914 4 5C4 2.79086 5.79086 1 8 1C10.2091 1 12 2.79086 12 5Z" stroke="#FF015C" stroke-width="1.5" stroke-linecap="round" stroke-linejoin="round"/>
<path fill-rule="evenodd" clip-rule="evenodd" d="M13.4976 14.2119C12.7978 13.4328 11.6309 13.2232 10.7541 13.9367C9.87737 14.6501 9.75394 15.843 10.4425 16.6868C10.8312 17.1632 11.7548 17.9983 12.4854 18.6353C12.8319 18.9374 13.0051 19.0885 13.2147 19.1503C13.3934 19.203 13.6018 19.203 13.7805 19.1503C13.9901 19.0885 14.1633 18.9374 14.5098 18.6353C15.2404 17.9983 16.164 17.1632 16.5527 16.6868C17.2413 15.843 17.1329 14.6426 16.2411 13.9367C15.3492 13.2307 14.1974 13.4328 13.4976 14.2119Z" stroke="white" stroke-width="1.5" stroke-linecap="round" stroke-linejoin="round"/>
</svg>
