<svg width="329" height="375" viewBox="0 0 329 375" fill="none" xmlns="http://www.w3.org/2000/svg">
<path fill-rule="evenodd" clip-rule="evenodd" d="M109.606 102.296C137.854 102.296 160.754 79.3961 160.754 51.1479C160.754 49.5741 160.683 48.0168 160.544 46.4792C159.926 39.6488 163.547 32.529 170.312 31.4029C178.337 30.067 186.579 29.3719 194.984 29.3719C277.362 29.3719 344.142 96.1524 344.142 178.53C344.142 196.81 340.854 214.323 334.836 230.507C333.394 234.386 329.315 236.443 325.177 236.443V236.443C303.686 236.443 286.264 253.864 286.264 275.355C286.264 278.45 286.626 281.461 287.308 284.347C288.564 289.655 287.58 295.601 283.184 298.829C258.481 316.972 227.984 327.689 194.984 327.689C137.578 327.689 87.7468 295.259 62.8101 247.721C60.045 242.45 62.3546 236.161 66.5455 231.934C73.5181 224.902 77.825 215.223 77.825 204.537C77.825 189.254 69.014 176.028 56.1945 169.663C50.8646 167.017 46.6307 161.827 47.5244 155.944C50.6186 135.574 57.8331 116.557 68.2912 99.7697C71.9133 93.9555 79.8605 93.3229 85.9304 96.4982C93.0094 100.202 101.063 102.296 109.606 102.296ZM194.984 20.0371C182.503 20.0371 170.359 21.4798 158.709 24.2075C155.817 24.8847 152.819 23.6132 151.079 21.2064V21.2064C148.058 17.03 149.503 10.5968 154.517 9.4016C167.502 6.30622 181.051 4.66741 194.984 4.66741C291.005 4.66741 368.845 82.5077 368.845 178.529C368.845 200.233 364.868 221.008 357.603 240.166C355.982 244.438 350.405 245.378 346.592 242.861V242.861C343.726 240.968 342.244 237.352 343.449 234.135C349.932 216.833 353.477 198.096 353.477 178.53C353.477 90.9969 282.517 20.0371 194.984 20.0371ZM360.494 258.997C358.756 255.25 358.274 250.929 359.862 247.116C368.656 225.999 373.512 202.831 373.512 178.529C373.512 79.9299 293.582 0 194.984 0C177.354 0 160.321 2.55536 144.236 7.3159C140.719 8.35666 136.944 7.75577 133.711 6.02489C126.529 2.18016 118.322 0 109.606 0C81.3577 0 58.458 22.8997 58.458 51.1479C58.458 52.9071 58.5468 54.6455 58.7201 56.3589C59.0892 60.0066 58.2085 63.7252 55.9078 66.5798C33.5088 94.3712 19.2696 129.015 16.8297 166.872C16.5939 170.53 14.7059 173.85 12.0537 176.381C4.62712 183.467 0 193.462 0 204.537C0 220.199 9.25222 233.699 22.5889 239.871C25.9133 241.409 28.7753 243.933 30.1877 247.313C57.121 311.766 120.763 357.057 194.984 357.057C237.895 357.057 277.271 341.917 308.06 316.688C311.255 314.07 315.532 313.289 319.62 313.874C321.435 314.133 323.29 314.268 325.177 314.268C346.668 314.268 364.089 296.846 364.089 275.355C364.089 269.512 362.801 263.97 360.494 258.997ZM300.773 316.511C304.393 313.732 303.659 308.101 300.165 305.166V305.166C297.534 302.955 293.672 302.605 290.938 304.687C264.303 324.977 231.05 337.024 194.984 337.024C133.63 337.024 80.4192 302.162 54.078 251.167C51.3931 245.97 45.4535 243.342 39.6041 243.444C39.374 243.448 39.1435 243.45 38.9125 243.45V243.45C36.4922 243.45 34.6265 245.87 35.5957 248.087C62.4277 309.484 123.695 352.39 194.984 352.39C234.788 352.39 271.467 339.014 300.773 316.511ZM22.2029 159.039C21.6688 163.826 26.6976 167.266 31.4258 166.344V166.344C34.5229 165.741 37.1802 163.313 37.5416 160.179C40.6927 132.849 50.7955 107.636 66.0366 86.3534C67.7683 83.9352 67.7558 80.7105 66.1813 78.1872V78.1872C63.459 73.8245 56.9519 72.6782 53.9411 76.8471C36.875 100.478 25.6017 128.569 22.2029 159.039Z" fill="#FF015C"/>
<path d="M223.957 335.467C223.957 356.912 206.564 374.305 185.118 374.305C163.672 374.305 146.279 356.912 146.279 335.467C146.279 323.883 151.345 313.481 159.4 306.371C166.256 300.309 185.118 279.741 176.675 242.591C176.675 242.591 193.561 276.364 215.615 311.42C220.107 318.546 223.957 326.382 223.957 335.467Z" fill="#FF015C"/>
<path d="M380.997 110.883C380.997 142.123 355.668 167.452 324.428 167.452C306.494 167.452 190.502 137.986 207.067 139.59C259.415 144.656 267.858 124.189 267.858 110.883C267.858 79.643 293.188 54.3134 324.428 54.3134C355.668 54.3134 380.997 79.643 380.997 110.883Z" fill="#FF015C"/>
<path d="M240.006 186.869C240.006 204.768 229.3 218.801 216.061 228.967C185.125 252.726 210.454 303.385 210.454 303.385C174.993 259.48 183.436 240.905 163.983 227.7C150.862 218.784 142.064 203.924 142.064 186.869C142.064 159.817 163.983 137.898 191.035 137.898C225.652 137.898 315.15 166.605 315.15 166.605C278 161.539 240.006 173.343 240.006 186.869Z" fill="#FF015C"/>
</svg>
