<svg width="338" height="203" viewBox="0 0 338 203" fill="none" xmlns="http://www.w3.org/2000/svg">
<path d="M3.49449 202.778C2.51993 202.778 1.79467 202.553 1.31872 202.103C0.865437 201.63 0.638794 200.909 0.638794 199.94V159.872C0.638794 158.881 0.865437 158.161 1.31872 157.71C1.79467 157.26 2.51993 157.034 3.49449 157.034C4.49172 157.034 5.21698 157.26 5.67026 157.71C6.12355 158.161 6.35019 158.881 6.35019 159.872V199.94C6.35019 200.909 6.12355 201.63 5.67026 202.103C5.21698 202.553 4.49172 202.778 3.49449 202.778Z" fill="#FF015C"/>
<path d="M23.3479 202.778C21.4441 202.778 20.4922 201.832 20.4922 199.94V159.805C20.4922 157.913 21.4441 156.967 23.3479 156.967C24.3224 156.967 25.2743 157.53 26.2036 158.656L53.5367 193.657H52.1088V159.805C52.1088 157.913 53.0607 156.967 54.9645 156.967C56.8683 156.967 57.8202 157.913 57.8202 159.805V199.94C57.8202 201.832 56.8683 202.778 54.9645 202.778C53.9446 202.778 52.9927 202.215 52.1088 201.089L24.7757 166.089H26.2036V199.94C26.2036 201.832 25.2517 202.778 23.3479 202.778Z" fill="#FF015C"/>
<path d="M74.8073 202.778C72.9035 202.778 71.9516 201.832 71.9516 199.94V159.805C71.9516 157.913 72.9035 156.967 74.8073 156.967H99.8286C100.713 156.967 101.404 157.226 101.902 157.744C102.424 158.239 102.684 158.926 102.684 159.805C102.684 161.697 101.732 162.643 99.8286 162.643H77.663V176.832H91.3295C93.2333 176.832 94.1852 177.778 94.1852 179.67C94.1852 181.562 93.2333 182.508 91.3295 182.508H77.663V199.94C77.663 201.832 76.7111 202.778 74.8073 202.778Z" fill="#FF015C"/>
<path d="M112.588 202.778C111.614 202.778 110.889 202.553 110.413 202.103C109.959 201.63 109.733 200.909 109.733 199.94V159.872C109.733 158.881 109.959 158.161 110.413 157.71C110.889 157.26 111.614 157.034 112.588 157.034C113.586 157.034 114.311 157.26 114.764 157.71C115.217 158.161 115.444 158.881 115.444 159.872V199.94C115.444 200.909 115.217 201.63 114.764 202.103C114.311 202.553 113.586 202.778 112.588 202.778Z" fill="#FF015C"/>
<path d="M132.442 202.778C130.538 202.778 129.586 201.832 129.586 199.94V159.805C129.586 157.913 130.538 156.967 132.442 156.967C133.416 156.967 134.368 157.53 135.297 158.656L162.631 193.657H161.203V159.805C161.203 157.913 162.155 156.967 164.058 156.967C165.962 156.967 166.914 157.913 166.914 159.805V199.94C166.914 201.832 165.962 202.778 164.058 202.778C163.039 202.778 162.087 202.215 161.203 201.089L133.87 166.089H135.297V199.94C135.297 201.832 134.346 202.778 132.442 202.778Z" fill="#FF015C"/>
<path d="M183.901 202.778C182.927 202.778 182.201 202.553 181.725 202.103C181.272 201.63 181.046 200.909 181.046 199.94V159.872C181.046 158.881 181.272 158.161 181.725 157.71C182.201 157.26 182.927 157.034 183.901 157.034C184.898 157.034 185.624 157.26 186.077 157.71C186.53 158.161 186.757 158.881 186.757 159.872V199.94C186.757 200.909 186.53 201.63 186.077 202.103C185.624 202.553 184.898 202.778 183.901 202.778Z" fill="#FF015C"/>
<path d="M214.701 202.778C213.75 202.778 213.036 202.542 212.56 202.069C212.084 201.596 211.846 200.886 211.846 199.94V162.71H198.655C197.703 162.71 196.989 162.474 196.513 162.001C196.037 161.528 195.799 160.818 195.799 159.872C195.799 158.926 196.037 158.217 196.513 157.744C196.989 157.271 197.703 157.034 198.655 157.034H230.748C231.7 157.034 232.414 157.271 232.889 157.744C233.365 158.217 233.603 158.926 233.603 159.872C233.603 160.818 233.365 161.528 232.889 162.001C232.414 162.474 231.7 162.71 230.748 162.71H217.557V199.94C217.557 200.841 217.308 201.54 216.809 202.035C216.333 202.531 215.631 202.778 214.701 202.778Z" fill="#FF015C"/>
<path d="M257.554 202.778C252.364 202.778 248.523 201.551 246.03 199.096C243.559 196.618 242.324 192.801 242.324 187.643V159.805C242.324 158.859 242.562 158.149 243.038 157.676C243.514 157.203 244.228 156.967 245.18 156.967C246.132 156.967 246.846 157.203 247.321 157.676C247.797 158.149 248.035 158.859 248.035 159.805V187.643C248.035 190.053 248.319 191.945 248.885 193.319C249.475 194.693 250.46 195.672 251.843 196.258C253.226 196.821 255.129 197.103 257.554 197.103H265.714C268.139 197.103 270.042 196.821 271.425 196.258C272.807 195.672 273.782 194.693 274.349 193.319C274.938 191.945 275.233 190.053 275.233 187.643V159.805C275.233 158.859 275.471 158.149 275.946 157.676C276.422 157.203 277.136 156.967 278.088 156.967C279.04 156.967 279.754 157.203 280.23 157.676C280.706 158.149 280.944 158.859 280.944 159.805V187.643C280.944 192.801 279.709 196.618 277.238 199.096C274.768 201.551 270.926 202.778 265.714 202.778H257.554Z" fill="#FF015C"/>
<path d="M297.577 202.778C295.673 202.778 294.721 201.832 294.721 199.94V159.805C294.721 157.913 295.673 156.967 297.577 156.967C298.823 156.967 299.866 157.575 300.704 158.791L316.751 182.778L315.527 182.981L331.709 158.791C332.48 157.575 333.636 156.967 335.177 156.967C336.718 156.967 337.488 157.913 337.488 159.805V199.94C337.488 201.832 336.537 202.778 334.633 202.778C332.729 202.778 331.777 201.832 331.777 199.94V165.48L333.545 166.089L319.266 186.967C318.428 188.184 317.272 188.792 315.799 188.792C314.779 188.792 313.85 188.184 313.011 186.967L298.733 166.089L300.432 166.562V199.94C300.432 201.832 299.48 202.778 297.577 202.778Z" fill="#FF015C"/>
<path d="M5.81289 122.178C0.983734 120.315 -0.465014 117.01 1.46665 112.263L44.5669 6.61914C46.3778 2.653 49.215 0.669922 53.0783 0.669922H53.4405C57.3642 0.850202 60.0202 2.83328 61.4086 6.61914L105.233 112.263C107.165 117.01 105.777 120.315 101.068 122.178C96.2993 124.041 92.9792 122.659 91.1079 118.032L81.3289 94.4152L24.9183 94.4152L15.5919 118.032C13.7206 122.719 10.461 124.101 5.81289 122.178ZM30.8943 79.2717L75.0812 79.2717L52.535 24.6471L30.8943 79.2717Z" fill="#BCFD01"/>
<path d="M211.176 123.26C209.184 124.522 207.282 124.912 205.471 124.432C203.66 123.951 202.121 122.719 200.853 120.736L172.784 74.2239H147.431L147.431 115.328C147.431 120.375 144.896 122.899 139.825 122.899C134.754 122.899 132.219 120.375 132.219 115.328L132.219 8.24165C132.219 3.19383 134.754 0.669922 139.825 0.669922L182.201 0.669922C193.247 0.669922 201.699 3.61449 207.554 9.50361C213.47 15.3326 216.427 23.7457 216.427 34.7427V40.1511C216.427 49.7059 214.194 57.3377 209.727 63.0466C205.26 68.6953 198.801 72.2108 190.35 73.5929L214.073 112.984C216.367 117.19 215.401 120.616 211.176 123.26ZM147.431 59.0804L182.201 59.0804C189.082 59.0804 193.972 57.6382 196.869 54.7537C199.767 51.8692 201.216 47.0017 201.216 40.1511V34.7427C201.216 27.9522 199.767 23.1147 196.869 20.2302C193.972 17.2857 189.082 15.8134 182.201 15.8134L147.431 15.8134V59.0804Z" fill="#BCFD01"/>
<path d="M276.098 122.899C265.775 122.899 257.717 120.826 251.922 116.68C246.187 112.533 242.595 106.133 241.147 97.4799C240.905 94.8358 241.449 92.8527 242.777 91.5307C244.105 90.2086 246.036 89.5476 248.572 89.5476C251.107 89.5476 252.948 90.1486 254.095 91.3504C255.302 92.5523 256.117 94.4152 256.54 96.9391C257.445 101.086 259.377 103.94 262.335 105.502C265.353 107.005 269.941 107.756 276.098 107.756H302.175C309.962 107.756 315.244 106.374 318.021 103.609C320.858 100.785 322.277 95.5569 322.277 87.9251C322.277 80.1731 320.828 74.8849 317.93 72.0605C315.033 69.1761 309.781 67.7338 302.175 67.7338H279.72C268.311 67.7338 259.83 64.9695 254.276 59.441C248.783 53.8523 246.036 45.3792 246.036 34.0216C246.036 22.7241 248.753 14.3411 254.185 8.87262C259.679 3.40415 268.13 0.669922 279.539 0.669922L301.089 0.669922C310.687 0.669922 318.202 2.62295 323.635 6.529C329.128 10.435 332.599 16.4143 334.048 24.4668C334.41 27.0508 333.927 29.0339 332.599 30.416C331.271 31.7381 329.279 32.3991 326.623 32.3991C324.208 32.3991 322.397 31.7681 321.19 30.5061C319.983 29.2442 319.198 27.4114 318.836 25.0076C317.87 21.4621 316.029 19.0584 313.312 17.7965C310.596 16.4744 306.521 15.8134 301.089 15.8134L279.539 15.8134C272.295 15.8134 267.435 17.1054 264.961 19.6894C262.486 22.2133 261.248 26.9907 261.248 34.0216C261.248 41.1126 262.516 45.9801 265.051 48.6242C267.586 51.2683 272.476 52.5904 279.72 52.5904L302.175 52.5904C314.067 52.5904 322.91 55.4748 328.705 61.2438C334.561 67.0127 337.488 75.9065 337.488 87.9251C337.488 99.8836 334.591 108.717 328.796 114.426C323.001 120.075 314.127 122.899 302.175 122.899H276.098Z" fill="#BCFD01"/>
</svg>
