<svg width="1291" height="392" viewBox="0 0 1291 392" fill="none" xmlns="http://www.w3.org/2000/svg">
<path d="M1 0V21.5C1 24.2614 3.23858 26.5 6 26.5H38C40.7614 26.5 43 28.7386 43 31.5V269C43 271.761 45.2386 274 48 274H64C66.7614 274 69 276.239 69 279V386C69 388.761 71.2386 391 74 391H361.5" stroke="url(#paint0_linear_473_5016)"/>
<path d="M1291 203.5H1266C1263.24 203.5 1261 205.739 1261 208.5V226C1261 228.761 1258.76 231 1256 231H1227C1224.24 231 1222 233.239 1222 236V250C1222 252.761 1219.76 255 1217 255H1187.5C1184.74 255 1182.5 257.239 1182.5 260V278.5C1182.5 281.261 1180.26 283.5 1177.5 283.5H1149.5C1146.74 283.5 1144.5 285.739 1144.5 288.5V303C1144.5 305.761 1142.26 308 1139.5 308H1109.5C1106.74 308 1104.5 310.239 1104.5 313V330C1104.5 332.761 1102.26 335 1099.5 335H1068.5C1065.74 335 1063.5 337.239 1063.5 340V354.5C1063.5 357.261 1061.26 359.5 1058.5 359.5H1028.5C1025.74 359.5 1023.5 361.739 1023.5 364.5V381.5C1023.5 384.261 1021.26 386.5 1018.5 386.5H1000C997.239 386.5 995 384.261 995 381.5V329.5C995 326.739 992.761 324.5 990 324.5H863.63C861.017 324.5 858.815 326.501 858.253 329.052C856.262 338.088 849.233 357.586 825.5 359.5C798.298 359.5 790.123 338.359 787.831 328.938C787.224 326.442 785.044 324.5 782.475 324.5H742.5" stroke="url(#paint1_linear_473_5016)"/>
<path d="M361.5 391H391.5C394.261 391 396.5 388.761 396.5 386V364.5C396.5 361.739 398.739 359.5 401.5 359.5H456.5C459.261 359.5 461.5 357.261 461.5 354.5V329.5C461.5 326.739 463.739 324.5 466.5 324.5H742.5" stroke="url(#paint2_linear_473_5016)"/>
<defs>
<linearGradient id="paint0_linear_473_5016" x1="118.5" y1="386" x2="353" y2="387.5" gradientUnits="userSpaceOnUse">
<stop stop-color="#FFF500"/>
<stop offset="1" stop-color="#FF015C"/>
</linearGradient>
<linearGradient id="paint1_linear_473_5016" x1="1017" y1="382" x2="1285.5" y2="192" gradientUnits="userSpaceOnUse">
<stop stop-color="#FF9401"/>
<stop offset="1" stop-color="#BBFD00" stop-opacity="0.12"/>
</linearGradient>
<linearGradient id="paint2_linear_473_5016" x1="615.5" y1="325" x2="739.5" y2="325" gradientUnits="userSpaceOnUse">
<stop stop-color="#FF015C"/>
<stop offset="1" stop-color="#FF9401"/>
</linearGradient>
</defs>
</svg>
