<svg width="342" height="1248" viewBox="0 0 342 1248" fill="none" xmlns="http://www.w3.org/2000/svg">
<path d="M22 0V7.5C22 10.2614 19.7614 12.5 17 12.5H6.5C3.73858 12.5 1.5 14.7386 1.5 17.5V387.5C1.5 390.261 3.73858 392.5 6.5 392.5H79.5C82.2614 392.5 84.5 394.739 84.5 397.5V510.5C84.5 513.261 86.7386 515.5 89.5 515.5H271.5C274.261 515.5 276.5 517.739 276.5 520.5V626" stroke="url(#paint0_linear_631_4203)"/>
<path d="M276.502 626V864.5C276.502 867.261 274.263 869.5 271.502 869.5H213.002C210.24 869.5 208.002 871.739 208.002 874.5V893.903C208.002 896.702 205.704 898.956 202.905 898.902L5.59638 895.098C2.79776 895.044 0.5 897.298 0.5 900.097V1080" stroke="url(#paint1_linear_631_4203)"/>
<path d="M0.5 1080V1207C0.5 1209.76 2.73858 1212 5.5 1212H45.9751C48.5438 1212 50.7236 1213.94 51.331 1216.44C53.6235 1225.86 61.7983 1247 89 1247C112.733 1245.09 119.762 1225.59 121.753 1216.55C122.315 1214 124.517 1212 127.13 1212H242H258.5C261.261 1212 263.5 1209.76 263.5 1207V1193.5C263.5 1190.74 265.739 1188.5 268.5 1188.5H282C284.761 1188.5 287 1186.26 287 1183.5V1169C287 1166.24 289.239 1164 292 1164H304C306.761 1164 309 1161.76 309 1159V1142C309 1139.24 311.239 1137 314 1137H323.5C326.261 1137 328.5 1134.76 328.5 1132V1117.5C328.5 1114.74 330.739 1112.5 333.5 1112.5H353" stroke="url(#paint2_linear_631_4203)"/>
<defs>
<linearGradient id="paint0_linear_631_4203" x1="277" y1="522.5" x2="267.5" y2="609" gradientUnits="userSpaceOnUse">
<stop stop-color="#FFF500"/>
<stop offset="1" stop-color="#FF015C"/>
</linearGradient>
<linearGradient id="paint1_linear_631_4203" x1="32" y1="900.5" x2="25.0001" y2="1050" gradientUnits="userSpaceOnUse">
<stop stop-color="#FF015C"/>
<stop offset="1" stop-color="#FF9401"/>
</linearGradient>
<linearGradient id="paint2_linear_631_4203" x1="165" y1="1220" x2="359" y2="1094" gradientUnits="userSpaceOnUse">
<stop stop-color="#FF9401"/>
<stop offset="1" stop-color="#BBFD00" stop-opacity="0.12"/>
</linearGradient>
</defs>
</svg>
