<svg width="32" height="32" viewBox="0 0 32 32" fill="none" xmlns="http://www.w3.org/2000/svg">
<path fill-rule="evenodd" clip-rule="evenodd" d="M9.21447 8.60012C11.5893 8.60012 13.5145 6.67492 13.5145 4.30006C13.5145 4.18693 13.5102 4.07482 13.5016 3.96388C13.4558 3.37203 13.7704 2.75691 14.3562 2.66102C15.019 2.55254 15.6993 2.49613 16.3928 2.49613C23.3037 2.49613 28.9061 8.09853 28.9061 15.0094C28.9061 16.5544 28.6261 18.0339 28.1141 19.4001C27.9974 19.7116 27.6706 19.8784 27.338 19.8784C25.5312 19.8784 24.0665 21.343 24.0665 23.1498C24.0665 23.3938 24.0933 23.6316 24.1439 23.8604C24.2457 24.32 24.1597 24.8325 23.7799 25.1106C21.7097 26.6273 19.1558 27.5228 16.3928 27.5228C11.5842 27.5228 7.40912 24.8105 5.31393 20.8324C5.07437 20.3775 5.27232 19.8345 5.6288 19.4641C6.19482 18.8759 6.54284 18.0765 6.54284 17.1958C6.54284 15.9284 5.82208 14.8293 4.76808 14.2861C4.31126 14.0506 3.94708 13.602 4.0251 13.094C4.2846 11.4046 4.88198 9.82661 5.74607 8.4311C6.05823 7.92696 6.74548 7.8708 7.27448 8.13867C7.85733 8.43382 8.51647 8.60012 9.21447 8.60012ZM16.3928 1.68475C15.3421 1.68475 14.3199 1.80635 13.3394 2.03623C13.0983 2.09276 12.8483 1.98676 12.7034 1.78597C12.4523 1.43819 12.5734 0.903608 12.9906 0.804057C14.0822 0.543594 15.2213 0.405687 16.3927 0.405687C24.4579 0.405687 30.9961 6.94385 30.9961 15.0091C30.9961 16.8336 30.6615 18.58 30.0503 20.1902C29.9154 20.5455 29.4522 20.6246 29.1349 20.4156C28.8958 20.2581 28.7722 19.9566 28.8728 19.6885C29.4188 18.2327 29.7175 16.656 29.7175 15.0094C29.7175 7.65042 23.7518 1.68475 16.3928 1.68475ZM30.3151 21.7918C30.1659 21.4652 30.1237 21.0897 30.2613 20.7581C30.9962 18.9874 31.4018 17.0456 31.4018 15.0091C31.4018 6.7198 24.682 0 16.3927 0C14.9163 0 13.4896 0.213175 12.1419 0.610425C11.8361 0.700557 11.5081 0.64815 11.2265 0.498774C10.6261 0.180362 9.94136 0 9.21447 0C6.8396 0 4.9144 1.9252 4.9144 4.30006C4.9144 4.44242 4.92132 4.58317 4.93484 4.72198C4.96573 5.03917 4.88938 5.36238 4.68967 5.61074C2.81599 7.94089 1.62392 10.8424 1.41612 14.0126C1.39528 14.3305 1.23094 14.6189 1.00151 14.84C0.384084 15.4351 0 16.2706 0 17.1958C0 18.5067 0.770999 19.6375 1.88426 20.1594C2.17256 20.2946 2.42146 20.5137 2.54457 20.8074C4.81261 26.2177 10.1588 30.0182 16.3927 30.0182C19.9933 30.0182 23.2978 28.7503 25.8841 26.6366C26.162 26.4094 26.5338 26.3419 26.8894 26.3907C27.0361 26.4108 27.1858 26.4212 27.338 26.4212C29.1447 26.4212 30.6094 24.9565 30.6094 23.1498C30.6094 22.6653 30.5041 22.2054 30.3151 21.7918ZM25.2811 26.5968C25.5821 26.3656 25.5222 25.8977 25.2319 25.6532C25.0128 25.4687 24.6908 25.4395 24.4629 25.6132C22.2232 27.3204 19.4264 28.3341 16.3928 28.3341C11.2451 28.3341 6.77913 25.4151 4.56 21.1419C4.32563 20.6906 3.8091 20.4627 3.30059 20.4671C3.29087 20.4672 3.28115 20.4672 3.27142 20.4672C3.07439 20.4672 2.92316 20.6643 3.00197 20.8449C5.25419 26.0055 10.4022 29.6125 16.3927 29.6125C19.7372 29.6125 22.8191 28.4881 25.2811 26.5968ZM1.87962 13.3753C1.83528 13.7736 2.25246 14.0603 2.64596 13.9841C2.90435 13.9341 3.12592 13.7316 3.156 13.4702C3.42058 11.17 4.27086 9.04815 5.55391 7.25739C5.69834 7.05581 5.69727 6.7869 5.5658 6.57663C5.33893 6.2138 4.79785 6.11955 4.54725 6.46642C3.11239 8.45255 2.16477 10.8139 1.87962 13.3753Z" fill="#FF015C"/>
<path d="M18.7615 28.3449C18.7615 30.1528 17.2953 31.619 15.4875 31.619C13.6796 31.619 12.2134 30.1528 12.2134 28.3449C12.2134 27.3684 12.6404 26.4915 13.3194 25.8922C13.8974 25.3812 15.4875 23.6474 14.7757 20.5156C14.7757 20.5156 16.1992 23.3626 18.0583 26.3179C18.437 26.9186 18.7615 27.5791 18.7615 28.3449Z" fill="url(#paint0_linear_1159_22182)"/>
<path d="M32.0004 9.41135C32.0004 12.0448 29.8651 14.1801 27.2316 14.1801C25.7199 14.1801 15.9417 11.6961 17.3382 11.8313C21.7511 12.2584 22.4629 10.5331 22.4629 9.41135C22.4629 6.77785 24.5981 4.64258 27.2316 4.64258C29.8651 4.64258 32.0004 6.77785 32.0004 9.41135Z" fill="url(#paint1_linear_1159_22182)"/>
<path d="M20.1143 15.8176C20.1143 17.3266 19.2118 18.5095 18.0957 19.3665C15.4879 21.3693 17.6231 25.6399 17.6231 25.6399C14.6338 21.9387 15.3455 20.3729 13.7056 19.2597C12.5996 18.5081 11.8579 17.2554 11.8579 15.8176C11.8579 13.5372 13.7056 11.6895 15.9861 11.6895C18.9043 11.6895 26.4489 14.1094 26.4489 14.1094C23.3172 13.6824 20.1143 14.6774 20.1143 15.8176Z" fill="url(#paint2_radial_1159_22182)"/>
<defs>
<linearGradient id="paint0_linear_1159_22182" x1="12.7828" y1="27.7755" x2="16.2704" y2="22.8644" gradientUnits="userSpaceOnUse">
<stop offset="0.28125" stop-color="#BBFD00"/>
<stop offset="1" stop-color="#5E8000"/>
</linearGradient>
<linearGradient id="paint1_linear_1159_22182" x1="24.5981" y1="9.48252" x2="22.534" y2="12.7566" gradientUnits="userSpaceOnUse">
<stop stop-color="#BBFD00"/>
<stop offset="1" stop-color="#638308"/>
</linearGradient>
<radialGradient id="paint2_radial_1159_22182" cx="0" cy="0" r="1" gradientUnits="userSpaceOnUse" gradientTransform="translate(14.7001 15.181) rotate(36.2292) scale(7.01011 7.332)">
<stop offset="0.335028" stop-color="#FF005C"/>
<stop offset="1" stop-color="#990037"/>
</radialGradient>
</defs>
</svg>
