<svg width="55" height="22" viewBox="0 0 55 22" fill="none" xmlns="http://www.w3.org/2000/svg">
<path d="M21.6679 6.12035H18.9879C18.915 6.12225 18.8427 6.1062 18.7775 6.07363C18.7123 6.04106 18.6561 5.99295 18.6139 5.93356C17.762 4.7972 16.6333 3.89743 15.335 3.31984C14.0368 2.74224 12.6123 2.50601 11.1969 2.63362C9.33869 2.7907 7.58311 3.55145 6.19866 4.79953C4.81421 6.04762 3.87706 7.71434 3.53056 9.54481C3.32626 10.6594 3.3497 11.8038 3.59941 12.9091C3.84913 14.0145 4.31997 15.058 4.98368 15.9769C5.64739 16.8958 6.49024 17.6712 7.46157 18.2564C8.4329 18.8416 9.51266 19.2246 10.6359 19.3824C12.2009 19.6375 13.8064 19.4318 15.2563 18.7905C16.7063 18.1492 17.9379 17.1001 18.8008 15.7711C18.8723 15.6543 18.9733 15.5583 19.0937 15.4927C19.214 15.4272 19.3495 15.3943 19.4865 15.3975H51.2113C51.513 15.4213 51.8063 15.5087 52.0718 15.654C52.3373 15.7992 52.569 15.999 52.7515 16.2402C52.9341 16.4814 53.0634 16.7586 53.131 17.0533C53.1985 17.3481 53.2028 17.6538 53.1434 17.9503C53.1434 18.0748 53.0811 18.0748 52.9565 18.0748H20.6084C20.4766 18.0597 20.3431 18.0807 20.2224 18.1355C20.1016 18.1904 19.998 18.277 19.9228 18.3862C18.8854 19.552 17.6068 20.4788 16.1755 21.1023C14.7442 21.7258 13.1943 22.0312 11.6332 21.9974C9.70341 21.9721 7.81464 21.4377 6.15814 20.4485C4.50165 19.4593 3.13626 18.0503 2.20027 16.3643C1.26429 14.6783 0.790937 12.7752 0.828181 10.8476C0.865426 8.92008 1.41194 7.03659 2.41236 5.38793C3.41278 3.73927 4.83158 2.384 6.52506 1.45937C8.21854 0.53475 10.1266 0.0736193 12.0558 0.122685C13.9851 0.17175 15.8672 0.729269 17.5114 1.73878C19.1556 2.74828 20.5035 4.17392 21.4186 5.87129C21.6056 5.93356 21.6056 5.99582 21.6679 6.12035Z" fill="white"/>
<path d="M7.83069 10.0431C7.70604 10.1676 7.76838 10.2922 7.76838 10.4167V14.0902C7.76838 14.3393 7.70603 14.4638 7.39439 14.4638H5.64922C5.46224 14.4638 5.33759 14.4015 5.33759 14.1525V7.24128C5.33759 7.0545 5.39991 6.92997 5.64922 6.92997H7.76838C8.07255 6.9386 8.36544 7.04688 8.60195 7.23814C8.83847 7.42941 9.00547 7.69304 9.07725 7.98844C9.38889 8.98465 9.63821 9.98086 9.94985 10.9771C10.0122 11.1016 9.94984 11.2884 10.1368 11.2884C10.3238 11.2884 10.2615 11.1016 10.3238 10.9771C10.6354 9.98086 10.8848 9.04691 11.1964 8.0507C11.2568 7.70915 11.445 7.40332 11.7228 7.19521C12.0005 6.9871 12.3471 6.89228 12.6922 6.92997H14.6244C14.8737 6.92997 14.9361 6.92997 14.9361 7.24128V14.1525C14.9361 14.4015 14.8737 14.4638 14.6244 14.4638H12.8792C12.6299 14.4638 12.5053 14.4015 12.5053 14.0902V10.3544C12.5053 10.2299 12.5676 10.1054 12.443 10.0431C12.256 9.98086 12.3183 10.2299 12.2559 10.2922C11.882 11.5374 11.4457 12.845 11.0717 14.0902C11.0094 14.3393 10.8847 14.4015 10.6978 14.4015H9.57586C9.32655 14.4015 9.20189 14.3393 9.13956 14.0902C8.76559 12.845 8.39165 11.5374 7.95536 10.2922C7.96177 10.243 7.95333 10.193 7.93112 10.1486C7.90892 10.1042 7.87394 10.0675 7.83069 10.0431Z" fill="white"/>
<path d="M26.7166 14.4006H24.2858C24.2039 14.4113 24.1208 14.392 24.052 14.3462C23.9833 14.3004 23.9334 14.2312 23.9118 14.1516C23.6002 13.5289 23.2885 12.9686 22.9769 12.4082C22.9358 12.2812 22.85 12.1734 22.7354 12.1047C22.6208 12.036 22.4852 12.0111 22.3536 12.0346C21.668 12.0346 21.668 12.0346 21.668 12.7195V14.1516C21.668 14.4006 21.6057 14.4629 21.3564 14.4629H19.5489C19.3619 14.4629 19.2372 14.4006 19.2372 14.1516V10.6026C19.2372 10.4158 19.2996 10.3535 19.4866 10.3535H26.2803C26.5296 10.3535 26.5296 10.478 26.4049 10.6026C26.3051 10.8564 26.1539 11.0869 25.9609 11.2797C25.7678 11.4725 25.5371 11.6235 25.283 11.7233C24.9714 11.8478 25.0337 11.9724 25.1584 12.2214C25.5947 12.844 26.031 13.4667 26.4049 14.0893C26.5919 14.2138 26.7166 14.2761 26.7166 14.4006Z" fill="white"/>
<path d="M21.7298 6.92945H24.2229C24.5644 6.93582 24.9012 7.01082 25.2131 7.14999C25.5249 7.28916 25.8056 7.48965 26.0383 7.73951C26.2709 7.98936 26.4508 8.28345 26.5673 8.60426C26.6837 8.92506 26.7343 9.26601 26.716 9.60676C26.716 9.91807 26.5913 10.0426 26.2797 9.98034C24.9085 9.91807 23.475 10.0426 22.1037 9.91807C21.3599 9.83277 20.659 9.52588 20.0921 9.0373C19.5251 8.54871 19.1185 7.90104 18.925 7.1785C18.8627 6.92945 18.925 6.86719 19.1743 6.86719C20.0469 6.92945 20.9195 6.92945 21.7298 6.92945Z" fill="white"/>
<path d="M15.8711 10.6655V7.30327C15.8711 7.05421 15.9334 6.92969 16.245 6.92969H17.9902C18.1772 6.92969 18.3019 6.92969 18.3019 7.17874V14.1522C18.3019 14.4012 18.1772 14.4012 17.9902 14.4012H16.1827C15.9334 14.4012 15.8711 14.339 15.8711 14.0899C15.8711 12.9692 15.8711 11.7862 15.8711 10.6655Z" fill="white"/>
<path d="M41.1139 11.9727V9.98026C41.1139 9.73121 41.1763 9.66895 41.4256 9.66895H43.7317C43.981 9.66895 43.981 9.73121 43.981 9.98026C43.981 10.6652 43.981 10.6652 43.2954 10.6652H42.6098C42.2981 10.6029 42.2358 10.7274 42.2358 11.0387C42.2358 11.4123 42.3605 11.5368 42.6721 11.4746H42.9838C43.607 11.4746 43.794 11.6614 43.607 12.284C43.5447 12.4708 43.4824 12.4085 43.3577 12.4085H42.5475C42.1112 12.3463 42.2981 12.6576 42.2358 12.9066C42.2358 13.1557 42.2358 13.2802 42.5475 13.2802H43.794C43.981 13.2802 44.0433 13.3425 44.0433 13.5292C44.1056 14.2764 44.1056 14.2764 43.3577 14.2764H41.4256C41.1763 14.2764 41.0516 14.2141 41.0516 13.9028C41.1139 13.2802 41.1139 12.5953 41.1139 11.9727Z" fill="white"/>
<path d="M29.7073 9.67009C30.0813 9.54556 30.2683 9.79461 30.393 10.1682C30.7669 11.4135 31.2032 12.6587 31.6395 13.8417C31.7642 14.153 31.7018 14.2153 31.3902 14.2153H31.2655C30.6423 14.2153 30.5799 14.2153 30.393 13.5927C30.3306 13.3436 30.206 13.2813 30.019 13.2813H29.7073C28.9594 13.2813 28.9594 13.2813 28.7101 13.9662C28.6478 14.153 28.5855 14.2153 28.3985 14.2153C27.4636 14.2153 27.4636 14.2775 27.7752 13.4059C28.1492 12.3474 28.5231 11.2889 28.8348 10.2305C29.0218 9.67009 29.0217 9.67009 29.7073 9.67009Z" fill="white"/>
<path d="M31.8269 11.7862C31.8098 11.3753 31.9205 10.9692 32.1437 10.6237C32.3669 10.2781 32.6916 10.01 33.0734 9.85609C33.4966 9.63486 33.9748 9.54066 34.4503 9.58485C34.9259 9.62904 35.3785 9.80974 35.7535 10.1051C35.9405 10.2297 35.9405 10.2919 35.8159 10.4787C35.782 10.5123 35.76 10.556 35.7535 10.6032C35.4419 11.1013 35.4419 11.1013 34.9432 10.8523C34.6974 10.7122 34.4127 10.6555 34.1319 10.6907C33.8511 10.7258 33.5892 10.851 33.3856 11.0474C33.1819 11.2438 33.0475 11.5008 33.0025 11.78C32.9575 12.0591 33.0042 12.3453 33.1357 12.5957C33.4474 13.4051 34.3823 13.5919 35.1926 13.0315C35.4419 12.8447 35.5665 12.8447 35.7535 13.0938C36.1275 13.6541 36.1275 13.6541 35.5042 14.0277C35.1227 14.2491 34.6884 14.3634 34.2472 14.3586C33.806 14.3538 33.3742 14.2301 32.9976 14.0005C32.621 13.7709 32.3134 13.444 32.1073 13.0543C31.9012 12.6645 31.8043 12.2264 31.8269 11.7862Z" fill="white"/>
<path d="M38.7463 9.60784C39.2582 9.59831 39.76 9.75088 40.1798 10.0437C40.3668 10.1682 40.4291 10.2927 40.2421 10.4795C40.1798 10.5418 40.1175 10.6041 40.1175 10.6663C39.9928 11.0399 39.8059 11.1022 39.4319 10.8531C39.1885 10.6947 38.902 10.6156 38.6117 10.6268C38.3215 10.6379 38.0418 10.7388 37.8113 10.9154C37.6099 11.1142 37.4727 11.3686 37.4172 11.646C37.3616 11.9234 37.3904 12.211 37.4997 12.4719C37.5768 12.6639 37.6987 12.8347 37.8552 12.9701C38.0118 13.1055 38.1984 13.2016 38.3997 13.2503C38.6009 13.299 38.8109 13.299 39.0121 13.2503C39.2134 13.2015 39.4 13.1054 39.5566 12.97C39.8682 12.7833 39.9928 12.7833 40.1798 13.0946C40.4915 13.6549 40.4914 13.6549 39.9928 13.9663C39.4382 14.2974 38.7802 14.4107 38.1466 14.2841C37.513 14.1575 36.9492 13.8001 36.5648 13.2814C36.2335 12.7485 36.1199 12.1087 36.2476 11.4945C36.3752 10.8803 36.7342 10.3386 37.2504 9.98142C37.7153 9.74817 38.2262 9.6206 38.7463 9.60784Z" fill="white"/>
<path d="M52.0838 9.54445H53.9536C54.1406 9.54445 54.203 9.60671 54.203 9.7935C54.203 10.6029 54.2653 10.6029 53.3927 10.6029C52.6447 10.6029 52.6448 10.6029 52.6448 11.3501V14.2764C52.6448 14.5255 52.5824 14.5877 52.3331 14.5877C51.3982 14.5877 51.3982 14.5877 51.3982 13.6538V10.852C51.3982 10.6029 51.3359 10.5407 51.0866 10.5407H50.0893C49.9023 10.5407 49.84 10.4784 49.84 10.2916V10.2293C49.84 9.41992 49.84 9.41992 50.5879 9.41992C51.0802 9.51824 51.5821 9.56002 52.0838 9.54445Z" fill="white"/>
<path d="M44.4164 9.66927C45.663 9.66927 46.9095 9.60701 48.0938 9.66927C48.4862 9.7251 48.846 9.91864 49.1087 10.2152C49.3713 10.5119 49.5197 10.8922 49.5273 11.2881C49.5273 11.5372 49.465 11.6617 49.1533 11.6617C48.2184 11.5994 47.2835 11.724 46.3486 11.5994C45.8631 11.5242 45.4143 11.2966 45.0669 10.9496C44.7196 10.6026 44.4917 10.1542 44.4164 9.66927Z" fill="white"/>
<path d="M47.1589 11.8486H49.1534C49.2157 11.8486 49.4027 11.7863 49.4027 11.9108C49.4651 12.0354 49.3404 12.0976 49.2781 12.2222C49.1378 12.4252 48.9521 12.5928 48.7357 12.7116C48.5194 12.8305 48.2783 12.8974 48.0315 12.907H46.1617C45.9124 12.907 45.85 12.9693 45.85 13.2184V13.7787C45.85 14.3391 45.85 14.3391 45.2891 14.3391C44.7281 14.3391 44.7281 14.3391 44.7281 13.7787V12.3467C44.7281 12.0354 44.7905 11.9108 45.1021 11.9108C45.9124 11.8486 46.5356 11.8486 47.1589 11.8486Z" fill="white"/>
</svg>
