<svg width="50" height="28" viewBox="0 0 50 28" fill="none" xmlns="http://www.w3.org/2000/svg">
<path fill-rule="evenodd" clip-rule="evenodd" d="M42.8018 18.7234C42.7395 19.2838 42.6148 19.7819 42.5525 20.28C41.9943 20.0636 41.4052 19.9375 40.8073 19.9064C40.371 19.9064 39.81 20.0932 39.81 20.529C39.81 20.9649 40.558 21.2762 40.9943 21.463C41.7422 21.8366 42.5525 22.2724 42.6148 23.2686C42.6328 23.5914 42.5808 23.9142 42.4625 24.2151C42.3442 24.5159 42.1623 24.7877 41.9292 25.012C40.8696 26.0082 38.5635 26.1327 36.943 25.4478C37.0611 24.9142 37.1444 24.3734 37.1923 23.829C37.9231 24.2033 38.7409 24.3753 39.5607 24.3271C39.997 24.2648 40.4957 24.0158 40.4957 23.5799C40.4957 23.0818 39.4984 22.7705 38.9998 22.4592C38.6626 22.3129 38.3699 22.0805 38.1511 21.7854C37.9323 21.4903 37.7951 21.1429 37.7532 20.7781C37.7445 20.2861 37.8977 19.8048 38.1895 19.4083C38.9375 18.4744 41.0566 18.163 42.8018 18.7234Z" fill="white"/>
<path fill-rule="evenodd" clip-rule="evenodd" d="M23.9159 8.4502H26.0351L24.7262 16.6689H22.6071L23.9159 8.4502Z" fill="white"/>
<path fill-rule="evenodd" clip-rule="evenodd" d="M16.6234 8.4502H19.8644C21.9212 8.4502 22.4822 9.63319 22.2329 11.0652C22.1478 11.609 21.8997 12.1143 21.5214 12.5144C21.1431 12.9145 20.6523 13.1908 20.1137 13.3067L22.1706 16.6689H19.4905L17.9323 13.4312L17.4337 16.6689H15.3145L16.6234 8.4502ZM18.4309 10.069L18.1193 12.1237H18.7425C19.0446 12.1325 19.3392 12.0292 19.5694 11.8337C19.7996 11.6382 19.9491 11.3644 19.9891 11.0652C20.0101 10.9321 20.0014 10.7959 19.9636 10.6665C19.9259 10.5371 19.86 10.4175 19.7707 10.3165C19.6814 10.2154 19.5709 10.1352 19.4471 10.0817C19.3232 10.0281 19.1891 10.0026 19.0542 10.0068H18.4309V10.069Z" fill="white"/>
<path fill-rule="evenodd" clip-rule="evenodd" d="M33.6395 8.4502H35.7586L34.4497 16.6689H32.3306L33.6395 8.4502Z" fill="white"/>
<path fill-rule="evenodd" clip-rule="evenodd" d="M37.3787 8.4502H41.9909L41.7416 10.1936H39.1862L38.9369 11.6256H41.3677L41.1183 13.4312H38.6876L38.4383 14.8633H40.9937L40.682 16.6689H36.0698L37.3787 8.4502Z" fill="white"/>
<path fill-rule="evenodd" clip-rule="evenodd" d="M10.7023 8.4502H15.3145L15.0652 10.1936H12.5098L12.3228 11.6256H14.6913L14.442 13.4312H12.0112L11.7618 14.8633H14.3173L14.0057 16.6689H9.3934L10.7023 8.4502Z" fill="white"/>
<path fill-rule="evenodd" clip-rule="evenodd" d="M27.6557 8.4502H32.3927L32.081 10.1936H29.5256L29.2763 11.6256H31.6447L31.3331 13.4312H28.9646L28.466 16.6689H26.3469L27.6557 8.4502Z" fill="white"/>
<path fill-rule="evenodd" clip-rule="evenodd" d="M43.2379 8.4502H45.9803C49.2837 8.4502 50.0316 10.9407 49.7823 12.5596C49.5641 13.7424 48.9283 14.8077 47.9904 15.5618C47.0524 16.316 45.8747 16.7088 44.6714 16.6689H41.929L43.2379 8.4502ZM45.1077 10.1936H45.544C47.1645 10.1936 47.7878 11.3143 47.6008 12.435C47.5362 13.1002 47.2259 13.7174 46.7304 14.1664C46.2348 14.6153 45.5897 14.8638 44.9207 14.8633H44.3598L45.1077 10.1936Z" fill="white"/>
<path fill-rule="evenodd" clip-rule="evenodd" d="M0.729492 7.32868H4.65613L5.09243 13.3059C7.7102 8.823 10.328 4.52685 13.008 0.292969H14.3169C11.5122 5.70985 8.70744 11.189 6.02735 16.7304H3.16027L2.47466 10.1305C2.28768 8.51168 1.97603 7.82679 0.791805 7.64V7.32868H0.729492Z" fill="white"/>
<path fill-rule="evenodd" clip-rule="evenodd" d="M2.22607 3.90433L5.59177 5.33637L5.84107 9.07215H6.09038L9.14446 3.90433V3.65527H2.22607V3.90433Z" fill="white"/>
<path fill-rule="evenodd" clip-rule="evenodd" d="M17.6833 22.5212C17.8095 22.5237 17.9333 22.5558 18.0448 22.615C18.1563 22.6741 18.2523 22.7586 18.3251 22.8616C18.3979 22.9646 18.4454 23.0832 18.4638 23.208C18.4823 23.3327 18.4711 23.46 18.4312 23.5797C18.4024 23.8505 18.2815 24.1033 18.0887 24.296C17.8959 24.4886 17.6428 24.6093 17.3716 24.6381C17.2454 24.6356 17.1216 24.6035 17.0101 24.5444C16.8986 24.4853 16.8026 24.4008 16.7298 24.2978C16.657 24.1948 16.6095 24.0761 16.5911 23.9514C16.5726 23.8266 16.5838 23.6993 16.6237 23.5797C16.6525 23.3088 16.7734 23.056 16.9662 22.8634C17.1591 22.6708 17.4121 22.55 17.6833 22.5212ZM16.0004 18.5986H17.3716L16.9354 21.8363C17.1212 21.643 17.3436 21.4884 17.5897 21.3815C17.8357 21.2747 18.1006 21.2176 18.3689 21.2137C19.4908 21.2137 20.1764 22.2721 19.9894 23.5797C19.8024 24.8872 18.7428 25.9457 17.6833 25.9457C17.441 25.9565 17.2007 25.8977 16.9908 25.7763C16.781 25.655 16.6103 25.476 16.4991 25.2608L16.4367 25.7589H14.9409L16.0004 18.5986Z" fill="white"/>
<path fill-rule="evenodd" clip-rule="evenodd" d="M20.0511 21.3389H21.6716L22.4195 23.5803L23.8531 21.3389H25.4113L21.2353 28.001H19.6771L21.4223 25.1992L20.0511 21.3389Z" fill="white"/>
<path fill-rule="evenodd" clip-rule="evenodd" d="M33.6388 25.8211L34.823 18.5986H36.8175L35.5709 25.8211H33.6388Z" fill="white"/>
<path fill-rule="evenodd" clip-rule="evenodd" d="M31.956 18.5361C31.2704 20.155 30.7095 21.8361 30.0239 23.3926L29.8369 22.4587L29.8992 22.6455C29.751 22.1407 29.4959 21.6735 29.1513 21.2757V21.2134C29.0743 21.1425 29.0109 21.0581 28.9643 20.9644L28.8396 20.8399C28.351 20.3184 27.7831 19.8771 27.1568 19.5323L28.902 25.7586H31.0211C32.0184 23.3304 33.0779 20.9644 34.0752 18.5361H31.956Z" fill="white"/>
<path fill-rule="evenodd" clip-rule="evenodd" d="M28.2785 18.5363H25.0374V18.7231C26.9073 19.0966 29.2134 20.6532 29.8367 22.6456L29.1511 19.2834C29.1225 19.0737 29.0179 18.8818 28.8571 18.744C28.6962 18.6063 28.4903 18.5324 28.2785 18.5363Z" fill="white"/>
<path fill-rule="evenodd" clip-rule="evenodd" d="M49.4079 25.8211H47.6004C47.4757 25.4476 47.4757 25.074 47.3511 24.7004H44.9203L44.484 25.8211H42.4272L45.1073 19.6571C45.2319 19.4081 45.4189 19.0345 45.5436 18.8477C45.6682 18.5986 46.2292 18.5986 46.4162 18.5986H47.912L49.4079 25.8211ZM46.4162 20.5288L45.4189 23.2061H47.0394L46.4162 20.5288Z" fill="white"/>
</svg>
