<svg width="53" height="19" viewBox="0 0 53 19" fill="none" xmlns="http://www.w3.org/2000/svg">
<path fill-rule="evenodd" clip-rule="evenodd" d="M49.862 7.60632C49.8563 7.33455 49.9575 7.07137 50.144 6.87342C50.3305 6.67547 50.5873 6.55856 50.8592 6.54785C50.9955 6.54804 51.1303 6.57602 51.2553 6.63009C51.3803 6.68416 51.493 6.76316 51.5863 6.86227C51.6797 6.96138 51.7519 7.0785 51.7983 7.20644C51.8448 7.33439 51.8645 7.47046 51.8565 7.60632C51.8622 7.8781 51.761 8.14127 51.5745 8.33923C51.388 8.53718 51.1312 8.65408 50.8592 8.66479C50.723 8.66461 50.5882 8.63662 50.4632 8.58256C50.3382 8.52849 50.2255 8.44948 50.1322 8.35037C50.0388 8.25126 49.9666 8.13415 49.9202 8.0062C49.8737 7.87826 49.854 7.74218 49.862 7.60632ZM50.8592 8.41574C50.9618 8.41256 51.0628 8.38898 51.1562 8.3464C51.2495 8.30382 51.3335 8.24308 51.4031 8.16773C51.4728 8.09237 51.5267 8.00392 51.5617 7.90753C51.5967 7.81114 51.6122 7.70875 51.6072 7.60632C51.6065 7.40239 51.5293 7.20613 51.3908 7.05628C51.2523 6.90643 51.0627 6.81388 50.8592 6.7969C50.6443 6.7969 50.4382 6.88218 50.2863 7.03398C50.1343 7.18577 50.049 7.39165 50.049 7.60632C50.049 7.82099 50.1343 8.02687 50.2863 8.17867C50.4382 8.33046 50.6443 8.41574 50.8592 8.41574ZM50.6723 8.10443H50.4853V7.17048H50.8592C50.9471 7.16116 51.0354 7.18322 51.1086 7.23274C51.1473 7.26174 51.1787 7.29934 51.2003 7.34257C51.222 7.3858 51.2332 7.43347 51.2332 7.4818C51.2332 7.53013 51.222 7.57779 51.2003 7.62102C51.1787 7.66425 51.1473 7.70185 51.1086 7.73085L51.2955 8.16669H51.0462L50.9216 7.79311H50.7969V8.10443H50.6723ZM50.6723 7.54406H50.9216C50.9554 7.5105 50.9774 7.46675 50.9839 7.41953C50.9839 7.40302 50.9773 7.38718 50.9656 7.37551C50.954 7.36383 50.9381 7.35727 50.9216 7.35727H50.6723V7.54406Z" fill="white"/>
<path fill-rule="evenodd" clip-rule="evenodd" d="M35.6515 0.694916L35.4022 2.43828C34.9525 2.15995 34.4353 2.00928 33.9063 2.00244C32.6598 2.00244 31.7872 3.2477 31.7872 5.05332C31.7872 6.29858 32.3482 7.04574 33.3454 7.04574C33.8534 7.0295 34.348 6.87912 34.779 6.6099L34.4673 8.47779C33.9856 8.64149 33.4803 8.72561 32.9714 8.72684C31.1639 8.72684 30.042 7.35705 30.042 5.24011C30.042 2.31375 31.6002 0.259075 33.7817 0.259075C34.0327 0.243135 34.2847 0.264112 34.5296 0.321338L35.2153 0.508127C35.3482 0.596188 35.496 0.659472 35.6515 0.694916Z" fill="white"/>
<path fill-rule="evenodd" clip-rule="evenodd" d="M30.1043 1.87793H29.9173C29.3563 1.87793 29.0447 2.18924 28.5461 2.9364L28.6707 1.94019H27.1748L26.1776 8.54007H27.8604C28.4837 4.49297 28.6084 3.80808 29.4186 3.80808H29.5433C29.6467 3.14335 29.8353 2.49465 30.1043 1.87793Z" fill="white"/>
<path fill-rule="evenodd" clip-rule="evenodd" d="M20.1315 8.47741C19.7499 8.61355 19.3515 8.69733 18.9473 8.72647C18.0747 8.72647 17.6384 8.22836 17.6384 7.29442C17.6312 7.08502 17.6521 6.8756 17.7007 6.67179L17.8254 6.04916L17.8877 5.55105L18.6357 1.00586H20.3185L20.1315 2.00207H21.0041L20.7548 3.6209H19.8822L19.4459 6.36047V6.60953C19.4459 6.9831 19.6329 7.10763 20.0069 7.10763C20.1552 7.12232 20.3049 7.10096 20.4432 7.04537L20.1315 8.47741Z" fill="white"/>
<path fill-rule="evenodd" clip-rule="evenodd" d="M13.5873 4.05697C13.572 4.45971 13.6843 4.857 13.9081 5.19233C14.1319 5.52767 14.4558 5.784 14.8338 5.92486C15.5194 6.23618 15.6441 6.3607 15.6441 6.67202C15.6441 7.10786 15.3324 7.29465 14.7092 7.29465C14.1999 7.29823 13.6938 7.21398 13.2133 7.04559L12.964 8.60217H13.0263L13.3379 8.66443C13.4626 8.66443 13.5873 8.72669 13.7742 8.72669C14.1482 8.72669 14.4598 8.78896 14.7092 8.78896C16.4543 8.78896 17.2646 8.10407 17.2646 6.60975C17.293 6.21284 17.1934 5.81727 16.9803 5.48109C16.7671 5.14491 16.4517 4.88583 16.0804 4.74186C15.3948 4.43055 15.3324 4.30602 15.3324 3.99471C15.3324 3.62113 15.5817 3.43434 16.1427 3.43434C16.5396 3.45134 16.9351 3.49293 17.3269 3.55887L17.5762 2.00229C17.1012 1.93258 16.6226 1.89099 16.1427 1.87777C14.2105 1.8155 13.5873 2.81171 13.5873 4.05697Z" fill="white"/>
<path fill-rule="evenodd" clip-rule="evenodd" d="M48.865 8.602H47.3068L47.3692 7.97937C47.1831 8.21372 46.9461 8.40275 46.6762 8.53218C46.4062 8.66162 46.1104 8.72807 45.811 8.72652C44.5644 8.72652 43.8165 7.60579 43.8165 5.98695C43.8165 3.80775 45.063 1.93986 46.4966 1.93986C46.8146 1.95542 47.1252 2.04176 47.4055 2.19257C47.6859 2.34338 47.929 2.55486 48.1171 2.81154L48.491 0.507812H50.1116L48.865 8.602ZM46.4342 7.04542C47.2445 7.04542 47.7431 6.11148 47.7431 4.80396C47.7431 3.93228 47.4315 3.49644 46.8705 3.49644C46.1226 3.49644 45.5616 4.43038 45.5616 5.7379C45.5616 6.60958 45.8733 7.04542 46.4342 7.04542Z" fill="white"/>
<path fill-rule="evenodd" clip-rule="evenodd" d="M25.4298 8.41604C24.8658 8.59441 24.2761 8.67855 23.6847 8.66509C21.8148 8.66509 20.8799 7.66889 20.8799 5.67647C20.8799 3.37274 22.1264 1.75391 23.8093 1.75391C25.1805 1.75391 26.0531 2.68785 26.0531 4.18216C26.0422 4.72647 25.9796 5.26852 25.8661 5.801H22.5627V5.98779C22.5627 6.79721 23.0614 7.17078 23.9963 7.17078C24.6046 7.16722 25.2031 7.01775 25.7415 6.73494L25.4298 8.41604ZM24.4949 4.49348V4.18216C24.51 4.06948 24.4999 3.95485 24.4655 3.8465C24.431 3.73816 24.373 3.63876 24.2955 3.55545C24.2181 3.47214 24.1232 3.40698 24.0176 3.36463C23.912 3.32227 23.7983 3.30378 23.6847 3.31048C23.186 3.31048 22.8121 3.74632 22.6251 4.49348H24.4949Z" fill="white"/>
<path fill-rule="evenodd" clip-rule="evenodd" d="M6.91825 8.60274H5.23539L6.23264 2.31418L4.05117 8.60274H2.92928L2.80462 2.37644L1.80737 8.60274H0.249176L1.55806 0.446289H3.92653L3.98884 5.48959L5.60936 0.446289H8.22712L6.91825 8.60274Z" fill="white"/>
<path fill-rule="evenodd" clip-rule="evenodd" d="M11.2195 5.61347H10.8455C9.91058 5.61347 9.41197 5.98705 9.41197 6.60968C9.40061 6.69701 9.40841 6.78576 9.43483 6.86977C9.46125 6.95379 9.50564 7.03105 9.56493 7.09621C9.62423 7.16137 9.69702 7.21287 9.77823 7.24712C9.85945 7.28137 9.94714 7.29756 10.0352 7.29457C10.6585 7.29457 11.1572 6.60968 11.2195 5.61347ZM12.4037 8.60209H11.0325V7.9172C10.8302 8.18463 10.5653 8.39831 10.261 8.53946C9.95671 8.6806 9.62232 8.74487 9.2873 8.72662C8.41472 8.72662 7.79144 7.97946 7.79144 6.92099C7.79144 5.30216 8.851 4.36821 10.7208 4.36821C10.9511 4.36066 11.1814 4.38157 11.4065 4.43047C11.4501 4.28938 11.4711 4.14228 11.4688 3.99463C11.4688 3.55879 11.1571 3.372 10.4092 3.372C9.94555 3.36863 9.48383 3.43153 9.03802 3.55879L8.851 3.62106L8.72638 3.68332L8.97567 2.18901C9.61687 1.96112 10.2899 1.83507 10.9702 1.81543C12.4037 1.81543 13.1516 2.50032 13.1516 3.74558C13.1542 4.1845 13.1124 4.62256 13.027 5.0531L12.7153 7.4191L12.653 7.85494L12.5907 8.16625V8.4153L12.4037 8.60209Z" fill="white"/>
<path fill-rule="evenodd" clip-rule="evenodd" d="M38.5187 5.61347H38.1447C37.2098 5.61347 36.7111 5.98705 36.7111 6.60968C36.6998 6.69701 36.7076 6.78576 36.734 6.86977C36.7604 6.95379 36.8048 7.03105 36.8641 7.09621C36.9234 7.16137 36.9962 7.21287 37.0774 7.24712C37.1586 7.28137 37.2463 7.29756 37.3344 7.29457C37.9577 7.29457 38.4563 6.60968 38.5187 5.61347ZM39.7029 8.60209H38.3317V7.9172C38.1294 8.18463 37.8645 8.39831 37.5602 8.53946C37.2559 8.6806 36.9215 8.74487 36.5865 8.72662C35.7139 8.72662 35.0906 7.97946 35.0906 6.92099C35.0906 5.30216 36.1502 4.36821 38.02 4.36821C38.2503 4.36066 38.4805 4.38157 38.7056 4.43047C38.7492 4.28938 38.7703 4.14228 38.768 3.99463C38.768 3.55879 38.4563 3.372 37.7084 3.372C37.2448 3.36863 36.783 3.43153 36.3372 3.55879L36.0879 3.62106L35.9632 3.68332L36.2125 2.18901C36.8537 1.96112 37.5267 1.83507 38.207 1.81543C39.6406 1.81543 40.3885 2.50032 40.3885 3.74558C40.3911 4.1845 40.3493 4.62256 40.2638 5.0531L39.8899 7.4191L39.8275 7.85494L39.7652 8.16625V8.4153L39.7029 8.60209Z" fill="white"/>
<path fill-rule="evenodd" clip-rule="evenodd" d="M44.3776 1.87793H44.1906C43.6297 1.87793 43.318 2.18924 42.8194 2.9364L42.9441 1.94019H41.4482L40.451 8.54007H42.1338C42.7571 4.49297 42.8817 3.80808 43.692 3.80808H43.8167C43.9201 3.14336 44.1086 2.49466 44.3776 1.87793Z" fill="white"/>
<path fill-rule="evenodd" clip-rule="evenodd" d="M37.3966 15.015C37.3966 16.5093 36.9603 17.381 36.2123 17.381C35.6514 17.381 35.3397 16.8206 35.3397 15.8867C35.3397 14.8282 35.8384 13.6452 36.5863 13.6452C37.1472 13.7075 37.3966 14.3301 37.3966 15.015ZM39.0171 15.015C39.0171 13.3339 38.2068 12.0264 36.6486 12.0264C34.8411 12.0264 33.7192 13.5829 33.7192 15.9489C33.7192 17.63 34.4048 18.9998 36.0877 18.9998C37.7705 18.9998 39.0171 17.8168 39.0171 15.015Z" fill="white"/>
<path fill-rule="evenodd" clip-rule="evenodd" d="M34.2178 10.9065L33.9685 12.6498C33.5598 12.3824 33.0856 12.2317 32.5973 12.214C31.4131 12.214 30.6028 13.4592 30.6028 15.2649C30.6028 16.5101 31.1638 17.2573 32.0364 17.2573C32.505 17.2379 32.9587 17.0868 33.3453 16.8214L33.0959 18.6893C32.6569 18.8517 32.1929 18.936 31.7247 18.9384C30.0419 18.9384 28.9823 17.5686 28.9823 15.4516C28.9823 12.5253 30.4159 10.4706 32.4727 10.4706C32.703 10.4574 32.9341 10.4784 33.1583 10.5329L33.7815 10.7197C34.0308 10.8442 34.0932 10.8442 34.2178 10.9065Z" fill="white"/>
<path fill-rule="evenodd" clip-rule="evenodd" d="M23.9341 12.0889H23.7471C23.2485 12.0889 22.9369 12.4002 22.4382 13.1473L22.5629 12.1511H21.1917L20.3191 18.8133H21.8773C22.4382 14.7662 22.5629 14.0813 23.3108 14.0813H23.4355C23.5499 13.4053 23.7166 12.7391 23.9341 12.0889Z" fill="white"/>
<path fill-rule="evenodd" clip-rule="evenodd" d="M44.1911 18.7516H42.7575L42.8198 18.129C42.654 18.3548 42.4385 18.5395 42.19 18.669C41.9415 18.7986 41.6665 18.8694 41.3863 18.8762C40.2644 18.8762 39.5165 17.7554 39.5165 16.1366C39.5165 13.9574 40.7007 12.0895 42.0719 12.0895C42.3814 12.1002 42.6826 12.1921 42.9452 12.3561C43.2078 12.5201 43.4225 12.7502 43.5678 13.0235L43.9418 10.7197H45.5L44.1911 18.7516ZM41.8849 17.1951C42.6329 17.1951 43.1315 16.2611 43.1315 14.9536C43.1315 14.0819 42.8198 13.6461 42.3212 13.6461C41.6356 13.6461 41.137 14.58 41.137 15.8876C41.137 16.7592 41.3863 17.1951 41.8849 17.1951Z" fill="white"/>
<path fill-rule="evenodd" clip-rule="evenodd" d="M9.34895 18.6885C8.82782 18.8668 8.27909 18.9511 7.72841 18.9376C5.98323 18.9376 5.11066 17.9413 5.11066 15.9489C5.11066 13.7075 6.29488 12.0264 7.79074 12.0264C9.09962 12.0264 9.90988 12.9603 9.90988 14.4546C9.899 14.9989 9.83639 15.541 9.72291 16.0735H6.66885V16.2602C6.66885 17.0074 7.10513 17.4432 8.04005 17.4432C8.6096 17.4459 9.16939 17.2954 9.66059 17.0074L9.34895 18.6885ZM8.47635 14.7659V14.4546C8.47635 13.8943 8.22703 13.5829 7.72841 13.5829C7.22979 13.5829 6.85584 14.0188 6.73118 14.7659H8.47635Z" fill="white"/>
<path fill-rule="evenodd" clip-rule="evenodd" d="M27.8609 18.6885C27.3398 18.8668 26.7911 18.9511 26.2404 18.9376C24.4952 18.9376 23.6227 17.9413 23.6227 15.9489C23.6227 13.7075 24.8069 12.0264 26.3027 12.0264C27.6116 12.0264 28.4219 12.9603 28.4219 14.4546C28.411 14.9989 28.3484 15.541 28.2349 16.0735H25.1808V16.2602C25.1808 17.0074 25.6171 17.4432 26.5521 17.4432C27.1216 17.4459 27.6814 17.2954 28.1726 17.0074L27.8609 18.6885ZM26.9884 14.7659V14.4546C26.9884 13.8943 26.739 13.5829 26.2404 13.5829C25.7418 13.5829 25.3678 14.0188 25.2432 14.7659H26.9884Z" fill="white"/>
<path fill-rule="evenodd" clip-rule="evenodd" d="M49.4881 18.6885C48.9658 18.8622 48.418 18.9464 47.8676 18.9376C46.1224 18.9376 45.2498 17.9413 45.2498 15.9489C45.2498 13.7075 46.4341 12.0264 47.9923 12.0264C49.3011 12.0264 50.1114 12.9603 50.1114 14.4546C50.1005 14.9989 50.0379 15.541 49.9244 16.0735H46.8703V16.2602C46.8703 17.0074 47.3066 17.4432 48.2415 17.4432C48.8111 17.4459 49.3709 17.2954 49.8621 17.0074L49.4881 18.6885ZM48.6155 14.7659V14.4546C48.6155 13.8943 48.3662 13.5829 47.8676 13.5829C47.369 13.5829 46.995 14.0188 46.8703 14.7659H48.6155Z" fill="white"/>
<path fill-rule="evenodd" clip-rule="evenodd" d="M4.7993 12.4009C4.40582 12.1582 3.95284 12.0289 3.49042 12.0273C2.86714 12.0273 2.36853 12.1518 2.36853 12.8367C2.36853 14.0197 4.67464 13.5839 4.67464 16.0744C4.67464 18.3781 3.17877 19.0008 1.80756 19.0008C1.18041 18.9892 0.563435 18.8404 6.10352e-05 18.5649L0.374031 16.8838C0.778566 17.2127 1.28601 17.3891 1.80756 17.3819C2.30618 17.3819 3.05412 17.2574 3.05412 16.3857C3.05412 15.0782 0.748001 15.514 0.748001 13.2103C0.748001 11.0311 2.05687 10.4085 3.36576 10.4085C3.99068 10.3717 4.61424 10.5006 5.17327 10.782L4.7993 12.4009Z" fill="white"/>
<path fill-rule="evenodd" clip-rule="evenodd" d="M13.8985 18.6887C13.4621 18.8607 12.9962 18.9453 12.5272 18.9378C11.156 18.9378 10.3458 17.568 10.3458 15.9492C10.3458 13.77 11.5923 12.0889 13.3375 12.0889C13.8417 12.1266 14.3313 12.2755 14.771 12.5247L14.3971 14.0813C14.0968 13.8398 13.723 13.708 13.3375 13.7077C12.5272 13.7077 11.904 14.4549 11.904 15.8246C11.904 16.6341 12.3402 17.2567 13.0258 17.2567C13.4045 17.2791 13.7792 17.169 14.0854 16.9454L13.8985 18.6887Z" fill="white"/>
<path fill-rule="evenodd" clip-rule="evenodd" d="M19.6956 17.0081C19.6333 17.5685 19.571 18.1288 19.5087 18.7515H18.0128L18.1374 17.693C17.9882 18.0524 17.7382 18.3611 17.4176 18.582C17.0969 18.8029 16.7192 18.9266 16.3299 18.9383C15.395 18.9383 14.8964 17.9421 14.8964 16.6968C14.8862 16.237 14.928 15.7775 15.0211 15.327L15.4574 12.2761H17.1402L16.7039 15.327C16.6318 15.6545 16.59 15.988 16.5793 16.3232C16.5793 16.6968 16.7662 17.1326 17.2025 17.0704C17.8881 17.0704 18.2621 16.261 18.3868 15.2648L18.823 12.2139H20.4436L19.6956 17.0081Z" fill="white"/>
<path fill-rule="evenodd" clip-rule="evenodd" d="M51.0469 18.6891H50.7976V17.5684H50.4236V17.3193H51.4209V17.5684H51.0469V18.6891Z" fill="white"/>
<path fill-rule="evenodd" clip-rule="evenodd" d="M52.7295 18.6891H52.4802V17.5684L52.2932 18.6891H52.0439L51.7946 17.5684V18.6891H51.5453V17.3193H51.9192L52.1685 18.3778L52.3555 17.3193H52.7295V18.6891Z" fill="white"/>
</svg>
