<svg width="15" height="19" viewBox="0 0 15 19" fill="none" xmlns="http://www.w3.org/2000/svg">
<circle cx="7.47224" cy="5.05378" r="4.2945" stroke="#ffffff" stroke-width="1.32218" stroke-linecap="round" stroke-linejoin="round"/>
<path d="M9.62026 11.4956H5.32575C4.61156 11.4956 4.25447 11.4956 3.95629 11.5472C2.4873 11.8012 1.33683 12.9517 1.08281 14.4206C1.03125 14.7188 1.03125 15.0759 1.03125 15.7901C1.03125 16.1472 1.03125 16.3258 1.05703 16.4748C1.18404 17.2093 1.75928 17.7846 2.49377 17.9116C2.64286 17.9374 2.82141 17.9374 3.1785 17.9374H11.7675C12.1246 17.9374 12.3032 17.9374 12.4522 17.9116C13.1867 17.7846 13.762 17.2093 13.889 16.4748C13.9148 16.3258 13.9148 16.1472 13.9148 15.7901C13.9148 15.0759 13.9148 14.7188 13.8632 14.4206C13.6092 12.9517 12.4587 11.8012 10.9897 11.5472C10.6915 11.4956 10.3344 11.4956 9.62026 11.4956Z" stroke="#ffffff" stroke-width="1.32218" stroke-linecap="round" stroke-linejoin="round"/>
</svg>
