<svg width="30" height="30" viewBox="0 0 30 30" fill="none" xmlns="http://www.w3.org/2000/svg">
<path d="M26.25 26.2499L26.2589 26.2588M26.25 19.9999L26.2589 20.0088M26.25 13.7499L26.2589 13.7588M23.125 16.8749L23.1339 16.8838M16.875 23.1249L16.8839 23.1338M23.125 23.1249L23.1339 23.1338M20 19.9999L20.0089 20.0088M13.75 26.2499L13.7589 26.2588M20 26.2499L20.0089 26.2588M20.5617 11.9386C20.5599 11.8576 20.5659 11.776 20.58 11.695C20.6136 11.5024 20.7164 11.3063 20.9222 10.914C21.5881 9.64404 21.9211 9.00907 21.9104 8.56531C21.8917 7.79752 21.3642 7.13604 20.6198 6.94703C20.1896 6.83778 19.4964 7.02113 18.1101 7.38782C17.6819 7.50109 17.4678 7.55772 17.2725 7.5476C16.9377 7.53026 16.6239 7.37913 16.4015 7.12816C16.2719 6.98179 16.1827 6.77908 16.0042 6.37366C15.4266 5.06118 15.1377 4.40494 14.7841 4.13668C14.1722 3.67254 13.3261 3.67254 12.7142 4.13668C12.3606 4.40494 12.0717 5.06118 11.4941 6.37366C11.3156 6.77908 11.2264 6.98179 11.0968 7.12816C10.8744 7.37913 10.5606 7.53026 10.2258 7.5476C10.0305 7.55772 9.81638 7.50109 9.38815 7.38782C8.00186 7.02113 7.30871 6.83778 6.87847 6.94703C6.13408 7.13604 5.60656 7.79752 5.58793 8.56531C5.57716 9.00907 5.91015 9.64404 6.57613 10.914C6.78185 11.3063 6.88471 11.5024 6.9183 11.695C6.97589 12.0253 6.89838 12.3649 6.70318 12.6375C6.58934 12.7965 6.41156 12.9286 6.05601 13.1928C4.90498 14.048 4.32946 14.4756 4.14662 14.8801C3.83028 15.5799 4.01855 16.4048 4.60721 16.8981C4.94744 17.1832 5.6515 17.3187 7.05961 17.5898C7.49457 17.6736 7.71206 17.7155 7.88361 17.8093C8.17775 17.9702 8.39493 18.2425 8.48635 18.5651C8.53966 18.7532 8.53209 18.9746 8.51695 19.4173C8.46793 20.8504 8.44343 21.567 8.64567 21.9621C8.86372 22.3882 9.24189 22.6913 9.67808 22.8223M16.25 13.7499C16.25 15.1306 15.1308 16.2499 13.75 16.2499C12.3693 16.2499 11.25 15.1306 11.25 13.7499C11.25 12.3692 12.3693 11.2499 13.75 11.2499C15.1308 11.2499 16.25 12.3692 16.25 13.7499Z" stroke="#FF9401" stroke-width="2" stroke-linecap="round"/>
</svg>
