<svg width="30" height="30" viewBox="0 0 30 30" fill="none" xmlns="http://www.w3.org/2000/svg">
<path d="M15 0C6.71725 0 0 6.71725 0 15C0 23.2827 6.71725 30 15 30C23.2827 30 30 23.2827 30 15C30 6.71725 23.2827 0 15 0ZM21.5455 21.9489C21.5136 21.9489 21.4776 21.9489 21.4457 21.9489C20.3435 21.7692 19.5927 20.9904 18.9497 20.2676C18.5863 19.8602 18.0351 18.9377 17.3722 19.0455C16.4337 19.1973 16.897 20.8027 16.5056 21.4896C16.1901 22.0447 14.8403 21.9449 13.9097 21.845C10.9744 21.5335 9.47284 19.9681 8.15895 18.2827C6.7532 16.4816 5.65895 14.6006 4.64457 12.528C4.31709 11.857 3.88179 11.1182 3.88179 10.2875C4.35703 9.90016 5.13578 10.0319 5.91853 10.0319C6.58147 10.0319 7.61981 9.88418 8.10703 10.1318C8.39457 10.2796 8.6901 11.0583 8.92173 11.5575C9.45687 12.6997 9.95208 13.5224 10.603 14.4609C10.8866 14.8682 11.3179 15.631 11.8251 15.5311C12.3163 15.4313 12.3642 14.2212 12.3842 13.4425C12.4081 12.5599 12.3842 11.4657 12.1286 10.9984C11.889 10.5591 11.4497 10.5471 11.0104 10.2875C11.3778 9.54473 12.3882 9.47284 13.6062 9.47284C14.6286 9.47284 16.0583 9.35703 16.4577 10.0319C16.865 10.7188 16.5855 11.9569 16.5575 12.8834C16.5296 13.9257 16.3498 15 17.0647 15.4792C17.6198 15.4193 17.9153 14.8802 18.2348 14.4609C18.9377 13.5423 19.373 12.7436 19.9161 11.5575C20.1398 11.0703 20.3794 10.2356 20.7827 10.0799C21.3978 9.84824 22.3762 10.028 23.2788 10.028C24.0176 10.028 25.3315 9.82428 25.5711 10.3315C25.7668 10.7548 25.1917 11.8211 25.012 12.1126C24.3291 13.2308 23.6621 13.9417 22.9233 14.9121C22.6278 15.2995 22.0208 15.9225 22.0567 16.5415C22.0847 17.0128 22.5559 17.3722 22.9233 17.7117C23.7141 18.4465 24.2692 18.9816 24.9081 19.8003C25.1478 20.1078 25.6709 20.7748 25.619 21.1741C25.4633 22.4321 22.5319 21.6494 21.5455 21.9489Z" fill="#E5E7EB"/>
</svg>
