<svg width="28" height="19" viewBox="0 0 28 19" fill="none" xmlns="http://www.w3.org/2000/svg">
<path d="M12.3333 5.25L10.2083 9.5H15.875L13.75 13.75M26.5 10.9167V8.08333M5.53333 18H20.55C22.1368 18 22.9302 18 23.5363 17.6912C24.0694 17.4195 24.5029 16.9861 24.7745 16.453C25.0833 15.8469 25.0833 15.0535 25.0833 13.4667V5.53333C25.0833 3.94652 25.0833 3.15311 24.7745 2.54703C24.5029 2.0139 24.0694 1.58046 23.5363 1.30881C22.9302 1 22.1368 1 20.55 1H5.53333C3.94652 1 3.15311 1 2.54703 1.30881C2.0139 1.58046 1.58046 2.0139 1.30881 2.54703C1 3.15311 1 3.94652 1 5.53333V13.4667C1 15.0535 1 15.8469 1.30881 16.453C1.58046 16.9861 2.0139 17.4195 2.54703 17.6912C3.15311 18 3.94652 18 5.53333 18Z" stroke="#03F8FE" stroke-width="2" stroke-linecap="round" stroke-linejoin="round"/>
</svg>
