<svg width="295" height="116" viewBox="0 0 295 116" fill="none" xmlns="http://www.w3.org/2000/svg">
<path fill-rule="evenodd" clip-rule="evenodd" d="M33.7455 31.4955C42.4428 31.4955 49.4933 24.445 49.4933 15.7477V15.7477C49.4933 13.4185 50.7814 11.0645 53.0829 10.706C55.3481 10.3532 57.6694 10.17 60.0335 10.17C84.7747 10.17 104.831 30.2267 104.831 54.9679C104.831 60.9638 103.653 66.6846 101.516 71.9114C101.288 72.4693 100.72 72.7984 100.117 72.7984V72.7984C93.5007 72.7984 88.1368 78.1623 88.1368 84.779C88.1368 85.0856 88.1483 85.3895 88.171 85.6903C88.3316 87.8264 87.8831 90.1245 86.1434 91.3743C78.7923 96.6558 69.7761 99.7658 60.0335 99.7658C43.0538 99.7658 28.2805 90.3191 20.6825 76.3947C19.5507 74.3206 20.3903 71.8273 21.7577 69.9004C23.1455 67.9449 23.9612 65.555 23.9612 62.9746C23.9612 58.974 22.0004 55.4313 18.9873 53.2554C17.0733 51.8732 15.4689 49.7902 15.8616 47.4623C16.7715 42.0687 18.6452 37.0025 21.2996 32.4471C22.7078 30.0303 25.9208 29.7022 28.5621 30.6225C30.1853 31.1881 31.9295 31.4955 33.7455 31.4955ZM60.0335 6.17004C56.1361 6.17004 52.3454 6.62694 48.712 7.49012C47.9121 7.68015 47.0816 7.3287 46.6064 6.65771V6.65771C45.7985 5.51674 46.2214 3.79967 47.5806 3.47217C51.5743 2.50982 55.7443 2 60.0335 2C89.2861 2 113 25.7139 113 54.9665C113 61.6361 111.767 68.0179 109.517 73.8962C109.076 75.0488 107.595 75.3368 106.554 74.6728V74.6728C105.75 74.1596 105.34 73.1544 105.678 72.2624C107.716 66.8869 108.831 61.0577 108.831 54.9679C108.831 28.0176 86.9838 6.17004 60.0335 6.17004ZM111.305 80.483C110.67 78.8307 110.444 76.984 111.1 75.3401C113.616 69.0397 115 62.1647 115 54.9665C115 24.6093 90.3906 0 60.0335 0C54.8512 0 49.8365 0.717159 45.0831 2.05764C43.5705 2.48421 41.9582 2.21653 40.5408 1.53753C38.4836 0.551965 36.179 0 33.7455 0C25.0483 0 17.9978 7.0505 17.9978 15.7477C17.9978 16.0516 18.0064 16.3535 18.0234 16.6531C18.1123 18.2217 17.7458 19.8143 16.7756 21.05C10.2682 29.3381 6.09129 39.5429 5.23191 50.6773C5.11102 52.2436 4.28948 53.6557 3.21793 54.8044C1.22158 56.9446 0 59.817 0 62.9746C0 67.5471 2.56149 71.5212 6.32779 73.5404C7.71128 74.2822 8.94636 75.3504 9.5702 76.7909C18.0149 96.2906 37.431 109.933 60.0335 109.933C72.9561 109.933 84.8372 105.473 94.2218 98.0096C95.6069 96.908 97.4406 96.5925 99.2053 96.7254C99.5064 96.7481 99.8106 96.7596 100.117 96.7596C106.734 96.7596 112.098 91.3957 112.098 84.779C112.098 83.265 111.817 81.8166 111.305 80.483ZM92.3901 96.9042C93.3654 96.1505 93.2087 94.6451 92.2771 93.8381V93.8381C91.5555 93.2131 90.481 93.1159 89.7238 93.6973C81.4987 100.012 71.2045 103.766 60.0335 103.766C41.2194 103.766 24.8921 93.1184 16.7485 77.5205C15.8584 75.8156 13.904 74.9552 11.9806 74.9552V74.9552V74.9552C11.5088 74.9552 11.1626 75.4301 11.3489 75.8636C19.4555 94.7248 38.202 107.933 60.0335 107.933C72.2177 107.933 83.441 103.819 92.3901 96.9042ZM7.38079 49.1679C7.23958 50.4647 8.55765 51.4158 9.8415 51.1844V51.1844C10.7063 51.0285 11.4432 50.3515 11.541 49.4782C12.496 40.9477 15.6502 33.0821 20.4234 26.4613C20.905 25.7933 20.9013 24.8983 20.4585 24.204V24.204C19.7085 23.028 17.9585 22.7583 17.1392 23.8871C11.8726 31.1433 8.40214 39.7878 7.38079 49.1679Z" fill="#FF015C"/>
<path d="M68.8 103.567C68.8 110.188 63.4304 115.558 56.8096 115.558C50.1888 115.558 44.8192 110.188 44.8192 103.567C44.8192 99.9909 46.3832 96.7796 48.8699 94.5848C50.9864 92.7133 56.8096 86.3636 54.203 74.8945C54.203 74.8945 59.4162 85.3209 66.2246 96.1436C67.6114 98.3435 68.8 100.762 68.8 103.567Z" fill="url(#paint0_linear_1399_22778)"/>
<path d="M117.282 34.2318C117.282 43.8763 109.463 51.6961 99.8181 51.6961C94.2817 51.6961 58.4721 42.599 63.5863 43.0943C79.7472 44.6582 82.3538 38.3398 82.3538 34.2318C82.3538 24.5874 90.1737 16.7676 99.8181 16.7676C109.463 16.7676 117.282 24.5874 117.282 34.2318Z" fill="url(#paint1_linear_1399_22778)"/>
<path d="M73.7533 57.6886C73.7533 63.2146 70.4482 67.5468 66.361 70.6851C56.8104 78.0201 64.6302 93.6597 64.6302 93.6597C53.6825 80.1054 56.2891 74.3709 50.2835 70.2941C46.2328 67.5416 43.5167 62.9539 43.5167 57.6886C43.5167 49.3371 50.2835 42.5703 58.635 42.5703C69.3221 42.5703 96.9521 51.4328 96.9521 51.4328C85.483 49.8688 73.7533 53.5128 73.7533 57.6886Z" fill="url(#paint2_radial_1399_22778)"/>
<path d="M139.73 115.825C139.28 115.825 138.944 115.721 138.725 115.512C138.515 115.294 138.41 114.961 138.41 114.513V95.9951C138.41 95.5371 138.515 95.204 138.725 94.9958C138.944 94.7877 139.28 94.6836 139.73 94.6836C140.191 94.6836 140.526 94.7877 140.736 94.9958C140.945 95.204 141.05 95.5371 141.05 95.9951V114.513C141.05 114.961 140.945 115.294 140.736 115.512C140.526 115.721 140.191 115.825 139.73 115.825Z" fill="#FF015C"/>
<path d="M148.906 115.825C148.026 115.825 147.586 115.387 147.586 114.513V95.9639C147.586 95.0895 148.026 94.6523 148.906 94.6523C149.356 94.6523 149.796 94.9126 150.225 95.433L162.858 111.609H162.198V95.9639C162.198 95.0895 162.638 94.6523 163.518 94.6523C164.397 94.6523 164.837 95.0895 164.837 95.9639V114.513C164.837 115.387 164.397 115.825 163.518 115.825C163.046 115.825 162.606 115.564 162.198 115.044L149.565 98.8681H150.225V114.513C150.225 115.387 149.785 115.825 148.906 115.825Z" fill="#FF015C"/>
<path d="M172.688 115.825C171.808 115.825 171.368 115.387 171.368 114.513V95.9639C171.368 95.0895 171.808 94.6523 172.688 94.6523H184.252C184.66 94.6523 184.98 94.772 185.21 95.0115C185.451 95.2405 185.572 95.5579 185.572 95.9639C185.572 96.8383 185.132 97.2755 184.252 97.2755H174.008V103.833H180.324C181.204 103.833 181.644 104.27 181.644 105.145C181.644 106.019 181.204 106.456 180.324 106.456H174.008V114.513C174.008 115.387 173.568 115.825 172.688 115.825Z" fill="#FF015C"/>
<path d="M190.149 115.825C189.699 115.825 189.363 115.721 189.143 115.512C188.934 115.294 188.829 114.961 188.829 114.513V95.9951C188.829 95.5371 188.934 95.204 189.143 94.9958C189.363 94.7877 189.699 94.6836 190.149 94.6836C190.61 94.6836 190.945 94.7877 191.155 94.9958C191.364 95.204 191.469 95.5371 191.469 95.9951V114.513C191.469 114.961 191.364 115.294 191.155 115.512C190.945 115.721 190.61 115.825 190.149 115.825Z" fill="#FF015C"/>
<path d="M199.324 115.825C198.445 115.825 198.005 115.387 198.005 114.513V95.9639C198.005 95.0895 198.445 94.6523 199.324 94.6523C199.775 94.6523 200.215 94.9126 200.644 95.433L213.277 111.609H212.617V95.9639C212.617 95.0895 213.057 94.6523 213.936 94.6523C214.816 94.6523 215.256 95.0895 215.256 95.9639V114.513C215.256 115.387 214.816 115.825 213.936 115.825C213.465 115.825 213.025 115.564 212.617 115.044L199.984 98.8681H200.644V114.513C200.644 115.387 200.204 115.825 199.324 115.825Z" fill="#FF015C"/>
<path d="M223.107 115.825C222.657 115.825 222.321 115.721 222.101 115.512C221.892 115.294 221.787 114.961 221.787 114.513V95.9951C221.787 95.5371 221.892 95.204 222.101 94.9958C222.321 94.7877 222.657 94.6836 223.107 94.6836C223.568 94.6836 223.903 94.7877 224.113 94.9958C224.322 95.204 224.427 95.5371 224.427 95.9951V114.513C224.427 114.961 224.322 115.294 224.113 115.512C223.903 115.721 223.568 115.825 223.107 115.825Z" fill="#FF015C"/>
<path d="M237.342 115.825C236.902 115.825 236.572 115.715 236.352 115.497C236.132 115.278 236.022 114.95 236.022 114.513V97.3067H229.926C229.486 97.3067 229.156 97.1974 228.936 96.9788C228.716 96.7602 228.606 96.4323 228.606 95.9951C228.606 95.5579 228.716 95.2301 228.936 95.0115C229.156 94.7929 229.486 94.6836 229.926 94.6836H244.758C245.198 94.6836 245.527 94.7929 245.747 95.0115C245.967 95.2301 246.077 95.5579 246.077 95.9951C246.077 96.4323 245.967 96.7602 245.747 96.9788C245.527 97.1974 245.198 97.3067 244.758 97.3067H238.661V114.513C238.661 114.929 238.546 115.252 238.316 115.481C238.096 115.71 237.771 115.825 237.342 115.825Z" fill="#FF015C"/>
<path d="M257.147 115.825C254.748 115.825 252.973 115.257 251.82 114.123C250.679 112.978 250.108 111.213 250.108 108.83V95.9639C250.108 95.5267 250.218 95.1988 250.438 94.9802C250.658 94.7616 250.988 94.6523 251.428 94.6523C251.867 94.6523 252.197 94.7616 252.417 94.9802C252.637 95.1988 252.747 95.5267 252.747 95.9639V108.83C252.747 109.943 252.878 110.818 253.14 111.453C253.412 112.088 253.868 112.541 254.507 112.811C255.146 113.071 256.026 113.202 257.147 113.202H260.917C262.038 113.202 262.918 113.071 263.557 112.811C264.196 112.541 264.646 112.088 264.908 111.453C265.181 110.818 265.317 109.943 265.317 108.83V95.9639C265.317 95.5267 265.427 95.1988 265.647 94.9802C265.867 94.7616 266.197 94.6523 266.637 94.6523C267.076 94.6523 267.406 94.7616 267.626 94.9802C267.846 95.1988 267.956 95.5267 267.956 95.9639V108.83C267.956 111.213 267.385 112.978 266.244 114.123C265.102 115.257 263.327 115.825 260.917 115.825H257.147Z" fill="#FF015C"/>
<path d="M275.643 115.825C274.763 115.825 274.324 115.387 274.324 114.513V95.9639C274.324 95.0895 274.763 94.6523 275.643 94.6523C276.219 94.6523 276.701 94.9334 277.089 95.4955L284.505 106.581L283.939 106.675L291.418 95.4955C291.774 94.9334 292.308 94.6523 293.021 94.6523C293.733 94.6523 294.089 95.0895 294.089 95.9639V114.513C294.089 115.387 293.649 115.825 292.769 115.825C291.889 115.825 291.449 115.387 291.449 114.513V98.587L292.266 98.8681L285.667 108.517C285.28 109.079 284.746 109.361 284.065 109.361C283.594 109.361 283.164 109.079 282.777 108.517L276.178 98.8681L276.963 99.0867V114.513C276.963 115.387 276.523 115.825 275.643 115.825Z" fill="#FF015C"/>
<path d="M140.802 79.8185C138.57 78.9575 137.9 77.43 138.793 75.236L158.712 26.4116C159.549 24.5786 160.86 23.6621 162.646 23.6621H162.813C164.627 23.7454 165.854 24.6619 166.496 26.4116L186.75 75.236C187.642 77.43 187.001 78.9575 184.825 79.8185C182.621 80.6794 181.086 80.0407 180.222 77.9022L175.702 66.9875H149.631L145.321 77.9022C144.456 80.0684 142.95 80.7072 140.802 79.8185ZM152.393 59.9888L172.815 59.9888L162.395 34.7434L152.393 59.9888Z" fill="white"/>
<path d="M235.712 80.3184C234.792 80.9016 233.913 81.0821 233.076 80.86C232.239 80.6378 231.528 80.0684 230.942 79.1519L217.969 57.6559H206.252V76.6524C206.252 78.9853 205.08 80.1517 202.737 80.1517C200.393 80.1517 199.221 78.9853 199.221 76.6524V27.1615C199.221 24.8286 200.393 23.6621 202.737 23.6621L222.321 23.6621C227.426 23.6621 231.332 25.023 234.038 27.7447C236.772 30.4386 238.139 34.3268 238.139 39.4092V41.9088C238.139 46.3246 237.107 49.8517 235.043 52.4902C232.978 55.1008 229.993 56.7255 226.087 57.3643L237.051 75.5693C238.111 77.5133 237.665 79.0964 235.712 80.3184ZM206.252 50.6572H222.321C225.502 50.6572 227.761 49.9906 229.1 48.6575C230.439 47.3244 231.109 45.0748 231.109 41.9088V39.4092C231.109 36.2709 230.439 34.0352 229.1 32.7021C227.761 31.3413 225.502 30.6608 222.321 30.6608L206.252 30.6608V50.6572Z" fill="white"/>
<path d="M265.717 80.1517C260.946 80.1517 257.222 79.1936 254.543 77.2773C251.893 75.361 250.233 72.4032 249.564 68.4039C249.452 67.1819 249.703 66.2654 250.317 65.6544C250.931 65.0434 251.823 64.7379 252.995 64.7379C254.167 64.7379 255.018 65.0156 255.548 65.5711C256.106 66.1265 256.482 66.9875 256.678 68.154C257.096 70.0703 257.989 71.3895 259.356 72.1116C260.751 72.8059 262.871 73.153 265.717 73.153H277.769C281.367 73.153 283.809 72.5143 285.092 71.2367C286.403 69.9314 287.059 67.5152 287.059 63.988C287.059 60.4054 286.389 57.9614 285.05 56.6561C283.711 55.323 281.284 54.6564 277.769 54.6564H267.391C262.118 54.6564 258.198 53.3789 255.631 50.8238C253.093 48.2409 251.823 44.325 251.823 39.0759C251.823 33.8547 253.079 29.9804 255.59 27.4531C258.128 24.9258 262.034 23.6621 267.307 23.6621H277.266C281.702 23.6621 285.176 24.5647 287.686 26.3699C290.225 28.1752 291.829 30.9386 292.499 34.6601C292.666 35.8543 292.443 36.7708 291.829 37.4096C291.216 38.0206 290.295 38.3261 289.067 38.3261C287.951 38.3261 287.115 38.0345 286.557 37.4512C285.999 36.868 285.636 36.021 285.469 34.91C285.022 33.2715 284.171 32.1605 282.916 31.5773C281.66 30.9663 279.777 30.6608 277.266 30.6608H267.307C263.959 30.6608 261.713 31.2579 260.569 32.4522C259.426 33.6186 258.854 35.8265 258.854 39.0759C258.854 42.3531 259.44 44.6027 260.611 45.8247C261.783 47.0467 264.043 47.6577 267.391 47.6577H277.769C283.265 47.6577 287.352 48.9908 290.03 51.657C292.736 54.3232 294.089 58.4335 294.089 63.988C294.089 69.5148 292.75 73.5974 290.072 76.2358C287.393 78.8464 283.292 80.1517 277.769 80.1517H265.717Z" fill="white"/>
<defs>
<linearGradient id="paint0_linear_1399_22778" x1="46.9045" y1="101.482" x2="59.6769" y2="83.4963" gradientUnits="userSpaceOnUse">
<stop offset="0.28125" stop-color="#BBFD00"/>
<stop offset="1" stop-color="#5E8000"/>
</linearGradient>
<linearGradient id="paint1_linear_1399_22778" x1="90.1737" y1="34.4925" x2="82.6145" y2="46.4829" gradientUnits="userSpaceOnUse">
<stop stop-color="#BBFD00"/>
<stop offset="1" stop-color="#638308"/>
</linearGradient>
<radialGradient id="paint2_radial_1399_22778" cx="0" cy="0" r="1" gradientUnits="userSpaceOnUse" gradientTransform="translate(53.9253 55.3572) rotate(36.2292) scale(25.6725 26.8514)">
<stop offset="0.335028" stop-color="#FF005C"/>
<stop offset="1" stop-color="#990037"/>
</radialGradient>
</defs>
</svg>
