<svg width="190" height="41" viewBox="0 0 190 41" fill="none" xmlns="http://www.w3.org/2000/svg">
<path d="M4.22414 26.4273C6.55707 26.4273 8.44827 24.5361 8.44827 22.2031C8.44827 19.8702 6.55707 17.979 4.22414 17.979C1.89122 17.979 1.52588e-05 19.8702 1.52588e-05 22.2031C1.52588e-05 24.5361 1.89122 26.4273 4.22414 26.4273Z" fill="#FF005C"/>
<path d="M11.8982 11.1047C14.9647 11.1047 17.4506 8.61881 17.4506 5.55234C17.4506 2.48587 14.9647 0 11.8982 0C8.83174 0 6.34587 2.48587 6.34587 5.55234C6.34587 8.61881 8.83174 11.1047 11.8982 11.1047Z" fill="#FF005C"/>
<path d="M35.2998 34.1157C37.6327 34.1157 39.5239 32.2245 39.5239 29.8916C39.5239 27.5587 37.6327 25.6675 35.2998 25.6675C32.9669 25.6675 31.0757 27.5587 31.0757 29.8916C31.0757 32.2245 32.9669 34.1157 35.2998 34.1157Z" fill="#FF005C"/>
<path d="M24.238 36.4864C24.238 38.8189 22.3463 40.7106 20.0139 40.7106C17.6814 40.7106 15.7897 38.8189 15.7897 36.4864C15.7897 35.2265 16.3407 34.0952 17.2168 33.322C17.9624 32.6627 20.0139 30.4257 19.0956 26.3853C19.0956 26.3853 20.9322 30.0584 23.3307 33.8711C23.8193 34.6462 24.238 35.4984 24.238 36.4864Z" fill="url(#paint0_linear_490_491)"/>
<path d="M41.3184 12.0602C41.3184 15.4579 38.5635 18.2128 35.1658 18.2128C33.2154 18.2128 20.5999 15.008 22.4016 15.1824C28.095 15.7334 29.0133 13.5075 29.0133 12.0602C29.0133 8.66258 31.7682 5.90771 35.1658 5.90771C38.5635 5.90771 41.3184 8.66258 41.3184 12.0602Z" fill="url(#paint1_linear_490_491)"/>
<path d="M25.9833 20.3246C25.9833 22.2714 24.819 23.7976 23.3791 24.9032C20.0145 27.4873 22.7693 32.997 22.7693 32.997C18.9125 28.2219 19.8308 26.2017 17.7151 24.7655C16.288 23.7957 15.3312 22.1796 15.3312 20.3246C15.3312 17.3824 17.7151 14.9985 20.6573 14.9985C24.4223 14.9985 34.1561 18.1207 34.1561 18.1207C30.1156 17.5697 25.9833 18.8535 25.9833 20.3246Z" fill="url(#paint2_radial_490_491)"/>
<path d="M57.7618 29.6142C57.287 29.6142 56.9127 29.316 56.6388 28.7196L49.873 12.8601C49.736 12.5438 49.6995 12.2637 49.7634 12.0197C49.8273 11.7667 50.0373 11.5588 50.3934 11.3962C51.1421 11.0257 51.6717 11.2154 51.9822 11.9655L58.3781 26.9574H57.5838L63.8154 11.9655C64.1167 11.2245 64.6463 11.0347 65.4041 11.3962C65.7237 11.5588 65.92 11.7667 65.9931 12.0197C66.0752 12.2637 66.0524 12.5438 65.9246 12.8601L59.104 28.7196C58.821 29.316 58.4101 29.6142 57.8714 29.6142H57.7618Z" fill="white"/>
<path d="M70.6792 29.6142C69.9122 29.6142 69.5287 29.2346 69.5287 28.4756V12.3721C69.5287 11.613 69.9122 11.2335 70.6792 11.2335L80.5129 11.2335C81.2798 11.2335 81.6633 11.613 81.6633 12.3721C81.6633 13.1312 81.2798 13.5108 80.5129 13.5108L71.8297 13.5108V19.2039H77.2806C78.0476 19.2039 78.4311 19.5834 78.4311 20.3425C78.4311 21.1016 78.0476 21.4811 77.2806 21.4811H71.8297V27.3369H80.5129C81.2798 27.3369 81.6633 27.7165 81.6633 28.4756C81.6633 29.2346 81.2798 29.6142 80.5129 29.6142H70.6792Z" fill="white"/>
<path d="M97.9762 29.6684C97.6749 29.8582 97.3873 29.9169 97.1133 29.8446C96.8394 29.7723 96.6066 29.5871 96.4149 29.2889L92.1691 22.2944H88.3343V28.4756C88.3343 29.2346 87.9508 29.6142 87.1838 29.6142C86.4169 29.6142 86.0334 29.2346 86.0334 28.4756V12.3721C86.0334 11.613 86.4169 11.2335 87.1838 11.2335L93.5935 11.2335C95.2644 11.2335 96.5427 11.6763 97.4283 12.5619C98.3231 13.4385 98.7705 14.7036 98.7705 16.3573V17.1706C98.7705 18.6075 98.4327 19.7551 97.757 20.6136C97.0814 21.4631 96.1044 21.9917 94.8261 22.1996L98.4145 28.1231C98.7614 28.7557 98.6153 29.2708 97.9762 29.6684ZM88.3343 20.0172H93.5935C94.6344 20.0172 95.374 19.8003 95.8122 19.3665C96.2505 18.9328 96.4696 18.2008 96.4696 17.1706V16.3573C96.4696 15.3362 96.2505 14.6087 95.8122 14.175C95.374 13.7322 94.6344 13.5108 93.5935 13.5108H88.3343V20.0172Z" fill="white"/>
<path d="M104.304 29.6142C103.537 29.6142 103.153 29.2346 103.153 28.4756V12.3721C103.153 11.613 103.537 11.2335 104.304 11.2335L111.453 11.2335C112.905 11.2335 114.019 11.613 114.795 12.3721C115.58 13.1312 115.973 14.2156 115.973 15.6253V16.3573C115.973 17.5773 115.585 18.5216 114.808 19.1903C116.26 19.9946 116.986 21.4631 116.986 23.5957V24.5175C116.986 26.1802 116.539 27.4454 115.644 28.3129C114.758 29.1804 113.48 29.6142 111.809 29.6142L104.304 29.6142ZM105.454 27.3369H111.809C112.841 27.3369 113.576 27.1201 114.014 26.6863C114.461 26.2435 114.685 25.5206 114.685 24.5175V23.5957C114.685 22.5927 114.471 21.8788 114.041 21.454C113.612 21.0203 112.868 20.8034 111.809 20.8034L105.454 20.8034V27.3369ZM105.454 18.5261L111.946 18.5261C112.613 18.5261 113.064 18.3228 113.302 17.9162C113.548 17.5095 113.672 16.9899 113.672 16.3573V15.6253C113.672 14.8392 113.507 14.2924 113.179 13.9852C112.85 13.6689 112.275 13.5108 111.453 13.5108L105.454 13.5108V18.5261Z" fill="white"/>
<path d="M120.707 29.5057C119.977 29.2256 119.758 28.7286 120.05 28.0147L126.569 12.1281C126.843 11.5317 127.272 11.2335 127.857 11.2335H127.911C128.505 11.2606 128.907 11.5588 129.117 12.1281L135.745 28.0147C136.038 28.7286 135.828 29.2256 135.115 29.5057C134.394 29.7859 133.892 29.578 133.609 28.8822L132.13 25.3308H123.597L122.186 28.8822C121.903 29.5871 121.41 29.7949 120.707 29.5057ZM124.501 23.0535H131.185L127.774 14.8392L124.501 23.0535Z" fill="white"/>
<path d="M140.978 29.6142C140.211 29.6142 139.827 29.2346 139.827 28.4756V12.3721C139.827 11.613 140.211 11.2335 140.978 11.2335C141.745 11.2335 142.128 11.613 142.128 12.3721V27.3369L149.716 27.3369C150.483 27.3369 150.866 27.7165 150.866 28.4756C150.866 29.2346 150.483 29.6142 149.716 29.6142L140.978 29.6142Z" fill="#FF005C"/>
<path d="M155.797 29.6142C155.404 29.6142 155.112 29.5238 154.92 29.3431C154.738 29.1533 154.647 28.8641 154.647 28.4756V12.3992C154.647 12.0016 154.738 11.7124 154.92 11.5317C155.112 11.351 155.404 11.2606 155.797 11.2606C156.199 11.2606 156.491 11.351 156.674 11.5317C156.856 11.7124 156.947 12.0016 156.947 12.3992V28.4756C156.947 28.8641 156.856 29.1533 156.674 29.3431C156.491 29.5238 156.199 29.6142 155.797 29.6142Z" fill="#FF005C"/>
<path d="M163.795 29.6142C163.028 29.6142 162.645 29.2346 162.645 28.4756V12.3721C162.645 11.613 163.028 11.2335 163.795 11.2335L173.875 11.2335C174.231 11.2335 174.51 11.3374 174.711 11.5453C174.921 11.7441 175.026 12.0197 175.026 12.3721C175.026 13.1312 174.642 13.5108 173.875 13.5108L164.946 13.5108V19.2039L170.451 19.2039C171.218 19.2039 171.602 19.5834 171.602 20.3425C171.602 21.1016 171.218 21.4811 170.451 21.4811L164.946 21.4811V28.4756C164.946 29.2346 164.562 29.6142 163.795 29.6142Z" fill="#FF005C"/>
<path d="M179.016 29.6142C178.249 29.6142 177.865 29.2346 177.865 28.4756V12.3721C177.865 11.613 178.249 11.2335 179.016 11.2335L188.85 11.2335C189.616 11.2335 190 11.613 190 12.3721C190 13.1312 189.616 13.5108 188.85 13.5108H180.166V19.2039H185.617C186.384 19.2039 186.768 19.5834 186.768 20.3425C186.768 21.1016 186.384 21.4811 185.617 21.4811H180.166V27.3369H188.85C189.616 27.3369 190 27.7165 190 28.4756C190 29.2346 189.616 29.6142 188.85 29.6142H179.016Z" fill="#FF005C"/>
<defs>
<linearGradient id="paint0_linear_490_491" x1="16.5244" y1="35.7518" x2="21.024" y2="29.4156" gradientUnits="userSpaceOnUse">
<stop offset="0.28125" stop-color="#BBFD00"/>
<stop offset="1" stop-color="#5E8000"/>
</linearGradient>
<linearGradient id="paint1_linear_490_491" x1="31.7682" y1="12.1521" x2="29.1051" y2="16.3762" gradientUnits="userSpaceOnUse">
<stop stop-color="#BBFD00"/>
<stop offset="1" stop-color="#638308"/>
</linearGradient>
<radialGradient id="paint2_radial_490_491" cx="0" cy="0" r="1" gradientUnits="userSpaceOnUse" gradientTransform="translate(18.9981 19.5033) rotate(36.2292) scale(9.04425 9.45955)">
<stop offset="0.335028" stop-color="#FF005C"/>
<stop offset="1" stop-color="#990037"/>
</radialGradient>
</defs>
</svg>
