<svg width="24" height="24" viewBox="0 0 24 24" fill="none" xmlns="http://www.w3.org/2000/svg">
<path fill-rule="evenodd" clip-rule="evenodd" d="M2.53021 1.46967C2.23732 1.17678 1.76244 1.17678 1.46955 1.46967C1.17666 1.76256 1.17666 2.23744 1.46955 2.53033L2.85982 3.9206C2.35416 4.27202 1.94054 4.74421 1.6586 5.29754C1.29985 6.00164 1.26059 6.837 1.25197 7.9436C1.25058 7.96222 1.24988 7.98103 1.24988 8C1.24988 8.01542 1.25034 8.03073 1.25126 8.04591C1.24988 8.27805 1.24988 8.52875 1.24988 8.79822V8.8V15.2V15.2321V15.2321C1.24987 16.045 1.24986 16.7006 1.29324 17.2315C1.3379 17.7781 1.43226 18.2582 1.6586 18.7025C2.01813 19.4081 2.59181 19.9818 3.29741 20.3413C3.74163 20.5676 4.22177 20.662 4.76841 20.7066C5.29932 20.75 5.95492 20.75 6.76776 20.75H6.79988H17.1999L17.3101 20.75H17.3101C18.2518 20.7501 18.9975 20.7502 19.6048 20.6656L21.4695 22.5303C21.7624 22.8232 22.2373 22.8232 22.5302 22.5303C22.8231 22.2374 22.8231 21.7626 22.5302 21.4697L20.3867 19.3262L8.53021 7.46967L4.67368 3.61314L2.53021 1.46967ZM2.99511 5.97852C3.20589 5.56484 3.53935 5.22674 3.94946 5.01024L6.18922 7.25H2.76753C2.79539 6.58086 2.8615 6.24075 2.99511 5.97852ZM17.1999 4.75C18.0523 4.75 18.6466 4.75058 19.1092 4.78838C19.5631 4.82546 19.8238 4.8946 20.0214 4.99524C20.4447 5.21095 20.7889 5.55516 21.0046 5.97852C21.1383 6.24075 21.2044 6.58086 21.2322 7.25H13.0001C12.5859 7.25 12.2501 7.58579 12.2501 8C12.2501 8.41421 12.5859 8.75 13.0001 8.75H21.2499V8.8V16.9999C21.2499 17.4141 21.5857 17.7499 21.9999 17.7499C22.4141 17.7499 22.7499 17.4141 22.7499 16.9999V8.8V8.79807C22.7499 8.52866 22.7499 8.278 22.7485 8.0459C22.7494 8.03072 22.7499 8.01541 22.7499 8C22.7499 7.98103 22.7492 7.96223 22.7478 7.94362C22.7392 6.837 22.6999 6.00164 22.3412 5.29754C21.9816 4.59193 21.408 4.01825 20.7023 3.65873C20.2581 3.43238 19.778 3.33803 19.2313 3.29336C18.7004 3.24999 18.0448 3.24999 17.232 3.25L17.1999 3.25H9.00012C8.58591 3.25 8.25012 3.58579 8.25012 4C8.25012 4.41421 8.58591 4.75 9.00012 4.75H17.1999Z" fill="#FF015C"/>
</svg>
