<svg width="571" height="186" viewBox="0 0 571 186" fill="none" xmlns="http://www.w3.org/2000/svg">
<path d="M338.457 186C334.819 186 333 184.204 333 180.611V104.389C333 100.796 334.819 99 338.457 99C342.096 99 343.915 100.796 343.915 104.389V175.221H379.907C383.545 175.221 385.364 177.018 385.364 180.611C385.364 184.204 383.545 186 379.907 186H338.457Z" fill="#FF005C"/>
<path d="M408.755 186C406.892 186 405.506 185.572 404.597 184.717C403.73 183.819 403.297 182.45 403.297 180.611V104.518C403.297 102.636 403.73 101.267 404.597 100.412C405.506 99.556 406.892 99.1283 408.755 99.1283C410.66 99.1283 412.046 99.556 412.913 100.412C413.779 101.267 414.212 102.636 414.212 104.518V180.611C414.212 182.45 413.779 183.819 412.913 184.717C412.046 185.572 410.66 186 408.755 186Z" fill="#FF005C"/>
<path d="M446.695 186C443.057 186 441.238 184.204 441.238 180.611V104.389C441.238 100.796 443.057 99 446.695 99L494.511 99C496.201 99 497.522 99.4919 498.474 100.476C499.471 101.417 499.969 102.721 499.969 104.389C499.969 107.982 498.15 109.779 494.511 109.779L452.152 109.779V136.726H478.269C481.908 136.726 483.727 138.522 483.727 142.115C483.727 145.708 481.908 147.504 478.269 147.504H452.152V180.611C452.152 184.204 450.333 186 446.695 186Z" fill="#FF005C"/>
<path d="M518.896 186C515.257 186 513.438 184.204 513.438 180.611V104.389C513.438 100.796 515.257 99 518.896 99L565.543 99C569.181 99 571 100.796 571 104.389C571 107.982 569.181 109.779 565.543 109.779L524.353 109.779V136.726H550.21C553.848 136.726 555.667 138.522 555.667 142.115C555.667 145.708 553.848 147.504 550.21 147.504H524.353V175.221L565.543 175.221C569.181 175.221 571 177.018 571 180.611C571 184.204 569.181 186 565.543 186L518.896 186Z" fill="#FF005C"/>
<path d="M38.1219 87.7584C35.8676 87.7584 34.0901 86.3362 32.7895 83.4919L0.665072 7.85794C0.0147794 6.34958 -0.158632 5.01359 0.144838 3.84999C0.448308 2.64329 1.44542 1.65208 3.13619 0.876347C6.69112 -0.890599 9.20559 0.0144263 10.6796 3.59142L41.0483 75.0881H37.2766L66.8649 3.59142C68.2955 0.0575248 70.81 -0.847501 74.4083 0.876347C75.9256 1.65208 76.8577 2.64329 77.2045 3.84999C77.5947 5.01359 77.4863 6.34958 76.8794 7.85794L44.4948 83.4919C43.1509 86.3362 41.2 87.7584 38.6422 87.7584H38.1219Z" fill="white"/>
<path d="M99.4547 87.7584C95.8131 87.7584 93.9922 85.9483 93.9922 82.3282L93.9922 5.53074C93.9922 1.91066 95.8131 0.100617 99.4547 0.100617L146.146 0.100617C149.787 0.100617 151.608 1.91066 151.608 5.53074C151.608 9.15083 149.787 10.9609 146.146 10.9609L104.917 10.9609V38.1115L130.799 38.1115C134.44 38.1115 136.261 39.9216 136.261 43.5416C136.261 47.1617 134.44 48.9718 130.799 48.9718L104.917 48.9718V76.8981L146.146 76.8981C149.787 76.8981 151.608 78.7082 151.608 82.3282C151.608 85.9483 149.787 87.7584 146.146 87.7584L99.4547 87.7584Z" fill="white"/>
<path d="M229.063 88.017C227.633 88.922 226.267 89.2021 224.966 88.8573C223.666 88.5126 222.56 87.6291 221.65 86.2069L201.491 52.8504L183.283 52.8504V82.3282C183.283 85.9483 181.462 87.7584 177.82 87.7584C174.178 87.7584 172.358 85.9483 172.358 82.3282V5.53074C172.358 1.91066 174.178 0.100617 177.82 0.100617L208.254 0.100617C216.187 0.100617 222.257 2.21234 226.462 6.43577C230.711 10.6161 232.835 16.6496 232.835 24.5362V28.4149C232.835 35.2672 231.231 40.7404 228.023 44.8345C224.815 48.8856 220.176 51.4067 214.106 52.3979L231.144 80.6475C232.792 83.6642 232.098 86.1207 229.063 88.017ZM183.283 41.9902L208.254 41.9902C213.196 41.9902 216.708 40.9559 218.789 38.8872C220.869 36.8186 221.91 33.3278 221.91 28.4149V24.5362C221.91 19.6663 220.869 16.1971 218.789 14.1284C216.708 12.0167 213.196 10.9609 208.254 10.9609L183.283 10.9609V41.9902Z" fill="white"/>
<path d="M259.107 87.7584C255.465 87.7584 253.644 85.9483 253.644 82.3282V5.53074C253.644 1.91066 255.465 0.100617 259.107 0.100617L293.052 0.100617C299.945 0.100617 305.234 1.91066 308.919 5.53074C312.647 9.15083 314.512 14.3224 314.512 21.0454V24.5362C314.512 30.3542 312.669 34.8577 308.984 38.0469C315.877 41.8824 319.324 48.8856 319.324 59.0563V63.4521C319.324 71.3818 317.199 77.4153 312.951 81.5525C308.746 85.6898 302.676 87.7584 294.743 87.7584H259.107ZM264.569 76.8981H294.743C299.642 76.8981 303.132 75.8638 305.212 73.7952C307.337 71.6835 308.399 68.2358 308.399 63.4521V59.0563C308.399 54.2726 307.38 50.868 305.342 48.8425C303.305 46.7739 299.772 45.7395 294.743 45.7395L264.569 45.7395V76.8981ZM264.569 34.8793L295.393 34.8793C298.558 34.8793 300.704 33.9096 301.831 31.9703C303.001 30.031 303.587 27.5529 303.587 24.5362V21.0454C303.587 17.296 302.806 14.6887 301.246 13.2234C299.685 11.7151 296.954 10.9609 293.052 10.9609L264.569 10.9609V34.8793Z" fill="white"/>
<path d="M336.992 87.2412C333.524 85.9053 332.484 83.535 333.871 80.1303L364.825 4.36715C366.126 1.5228 368.163 0.100617 370.938 0.100617L371.198 0.100617C374.016 0.229907 375.923 1.65209 376.92 4.36715L408.395 80.1303C409.782 83.535 408.785 85.9053 405.403 87.2412C401.978 88.5772 399.594 87.586 398.25 84.2676L391.227 67.3308H350.714L344.016 84.2676C342.672 87.6291 340.331 88.6203 336.992 87.2412ZM355.006 56.4705L386.74 56.4705L370.548 17.296L355.006 56.4705Z" fill="white"/>
</svg>
