<svg width="24" height="24" viewBox="0 0 24 24" fill="none" xmlns="http://www.w3.org/2000/svg">
<path fill-rule="evenodd" clip-rule="evenodd" d="M10.8595 4.3091C11.0067 4.38867 11.1355 4.45835 11.25 4.51812V7.00001C11.25 7.41422 11.5858 7.75001 12 7.75001C12.4142 7.75001 12.75 7.41422 12.75 7.00001V4.51812C12.8645 4.45834 12.9934 4.38865 13.1405 4.30907L13.1406 4.30905C15.055 3.27399 16.6844 3.05735 18.9994 3.01201C19.9333 2.99372 20.4003 2.98457 20.7001 3.27861C21 3.57264 21 4.04843 21 5.00001V13C21 13.9338 21 14.4007 20.714 14.6924C20.428 14.984 19.9518 14.9934 18.9994 15.012C16.6844 15.0574 15.055 15.274 13.1406 16.3091C12.5489 16.629 12.253 16.7889 12 16.7889C11.747 16.7889 11.4511 16.629 10.8594 16.3091C8.94502 15.274 7.31563 15.0574 5.00058 15.012C4.0482 14.9934 3.57201 14.984 3.286 14.6924C3 14.4007 3 13.9338 3 13V5.00001C3 4.04843 3 3.57264 3.29985 3.27861C3.5997 2.98457 4.06666 2.99372 5.00058 3.01201C7.31563 3.05735 8.94502 3.27399 10.8594 4.30905L10.8595 4.3091ZM3 17.75C2.58579 17.75 2.25 18.0858 2.25 18.5C2.25 18.9142 2.58579 19.25 3 19.25C4.97377 19.25 6.39687 19.3743 7.67766 19.7236C8.95056 20.0707 10.1262 20.6522 11.584 21.624C11.8359 21.792 12.1641 21.792 12.416 21.624C13.8738 20.6522 15.0494 20.0707 16.3223 19.7236C17.6031 19.3743 19.0262 19.25 21 19.25C21.4142 19.25 21.75 18.9142 21.75 18.5C21.75 18.0858 21.4142 17.75 21 17.75C18.9738 17.75 17.3969 17.8757 15.9277 18.2764C14.585 18.6426 13.3686 19.2283 12 20.1041C10.6314 19.2283 9.41499 18.6426 8.07234 18.2764C6.60313 17.8757 5.02623 17.75 3 17.75Z" fill="#FF015C"/>
</svg>
