<svg width="24" height="24" viewBox="0 0 24 24" fill="none" xmlns="http://www.w3.org/2000/svg">
<path fill-rule="evenodd" clip-rule="evenodd" d="M4.70251 8.73649C4.92926 9.34116 5.23073 9.97802 5.60234 10.6319C6.27836 9.7177 7.06029 8.80839 7.93469 7.93399C8.80898 7.0597 9.71819 6.27785 10.6323 5.60188C9.97842 5.23029 9.34157 4.92883 8.73692 4.70208C6.74134 3.95374 5.39288 4.11153 4.75242 4.75199C4.11195 5.39246 3.95416 6.74091 4.70251 8.73649ZM3.29801 9.26318C3.62814 10.1435 4.09074 11.0665 4.67138 12.0001C4.09087 12.9335 3.62837 13.8563 3.2983 14.7365C2.51111 16.8357 2.37989 18.9962 3.69205 20.3084C5.0042 21.6205 7.16472 21.4893 9.26389 20.7021C10.1441 20.372 11.067 19.9095 12.0004 19.329C12.9338 19.9095 13.8567 20.372 14.7369 20.7021C16.8361 21.4893 18.9966 21.6205 20.3088 20.3083C21.6209 18.9962 21.4897 16.8357 20.7025 14.7365C20.3724 13.8563 19.91 12.9334 19.3294 12.0001C19.9101 11.0666 20.3727 10.1435 20.7028 9.2632C21.49 7.16403 21.6212 5.00351 20.3091 3.69135C18.9969 2.3792 16.8364 2.51042 14.7372 3.29761C13.8569 3.62772 12.9339 4.09029 12.0004 4.67091C11.0669 4.09028 10.1439 3.6277 9.2636 3.29759C7.16443 2.5104 5.00391 2.37917 3.69176 3.69133C2.3796 5.00349 2.51082 7.164 3.29801 9.26318ZM8.73721 19.2976C9.34176 19.0709 9.97849 18.7695 10.6323 18.398C9.71806 17.722 8.80877 16.9401 7.9344 16.0657C7.06014 15.1914 6.27833 14.2823 5.60238 13.3682C5.23089 14.022 4.9295 14.6587 4.7028 15.2632C3.95445 17.2588 4.11224 18.6072 4.75271 19.2477C5.39317 19.8882 6.74163 20.046 8.73721 19.2976ZM8.99506 15.005C9.97785 15.9878 10.9966 16.8358 12.0004 17.5335C13.0042 16.8358 14.023 15.9878 15.0058 15.0051C15.9884 14.0224 16.8363 13.0038 17.534 12.0001C16.8363 10.9962 15.9883 9.97744 15.0055 8.99463C14.0228 8.01195 13.0041 7.16404 12.0004 6.46635C10.9967 7.16405 9.97805 8.01196 8.99535 8.99465C8.01254 9.97746 7.16456 10.9962 6.46682 12.0001C7.1645 13.0038 8.01239 14.0224 8.99506 15.005ZM15.2636 19.2976C14.6591 19.0709 14.0223 18.7695 13.3686 18.398C14.2828 17.722 15.1921 16.9401 16.0664 16.0657C16.9407 15.1915 17.7225 14.2823 18.3985 13.3682C18.7699 14.022 19.0713 14.6587 19.298 15.2632C20.0464 17.2588 19.8886 18.6072 19.2481 19.2477C18.6076 19.8881 17.2592 20.0459 15.2636 19.2976ZM19.2983 8.73652C19.0716 9.34118 18.7701 9.97803 18.3985 10.6319C17.7225 9.71769 16.9405 8.80837 16.0661 7.93397C15.1918 7.05969 14.2827 6.27785 13.3685 5.60189C14.0224 5.2303 14.6593 4.92885 15.2639 4.70211C17.2595 3.95376 18.6079 4.11155 19.2484 4.75201C19.8889 5.39248 20.0466 6.74093 19.2983 8.73652ZM12 12.9999C12.5523 12.9999 13 12.5522 13 11.9999C13 11.4476 12.5523 10.9999 12 10.9999C11.4477 10.9999 11 11.4476 11 11.9999C11 12.5522 11.4477 12.9999 12 12.9999Z" fill="#BCFD01"/>
</svg>
