<svg width="24" height="24" viewBox="0 0 24 24" fill="none" xmlns="http://www.w3.org/2000/svg">
<path fill-rule="evenodd" clip-rule="evenodd" d="M17.8945 2.10541C17.6016 1.81252 17.1267 1.81252 16.8338 2.10541C16.5409 2.39831 16.5409 2.87318 16.8338 3.16607C18.3276 4.65985 19.2502 6.72132 19.2502 8.9997C19.2502 13.5561 15.5565 17.2497 11.0002 17.2497C8.72181 17.2497 6.66034 16.3271 5.16656 14.8333C4.87367 14.5404 4.39879 14.5404 4.1059 14.8333C3.81301 15.1262 3.81301 15.6011 4.1059 15.894C5.70418 17.4923 7.8568 18.5391 10.2502 18.7213V20.2497H8.00019C7.58598 20.2497 7.25019 20.5855 7.25019 20.9997C7.25019 21.4139 7.58598 21.7497 8.00019 21.7497H11.0002H14.0002C14.4144 21.7497 14.7502 21.4139 14.7502 20.9997C14.7502 20.5855 14.4144 20.2497 14.0002 20.2497H11.7502V18.7213C16.7845 18.3383 20.7502 14.1321 20.7502 8.9997C20.7502 6.30752 19.6581 3.86899 17.8945 2.10541ZM4.25019 8.9997C4.25019 5.27178 7.27227 2.2497 11.0002 2.2497C14.7281 2.2497 17.7502 5.27178 17.7502 8.9997C17.7502 12.7276 14.7281 15.7497 11.0002 15.7497C7.27227 15.7497 4.25019 12.7276 4.25019 8.9997Z" fill="#BCFD01"/>
</svg>
