<svg width="316" height="190" viewBox="0 0 316 190" fill="none" xmlns="http://www.w3.org/2000/svg">
<path d="M2.67894 190C1.7647 190 1.08433 189.789 0.637844 189.366C0.212615 188.922 0 188.245 0 187.336V149.727C0 148.797 0.212615 148.12 0.637844 147.698C1.08433 147.275 1.7647 147.063 2.67894 147.063C3.61445 147.063 4.29481 147.275 4.72004 147.698C5.14527 148.12 5.35788 148.797 5.35788 149.727V187.336C5.35788 188.245 5.14527 188.922 4.72004 189.366C4.29481 189.789 3.61445 190 2.67894 190Z" fill="#FF015C"/>
<path d="M21.3035 190C19.5175 190 18.6245 189.112 18.6245 187.336V149.664C18.6245 147.888 19.5175 147 21.3035 147C22.2177 147 23.1107 147.529 23.9824 148.586L49.6237 181.438H48.2842V149.664C48.2842 147.888 49.1772 147 50.9632 147C52.7491 147 53.6421 147.888 53.6421 149.664V187.336C53.6421 189.112 52.7491 190 50.9632 190C50.0064 190 49.1134 189.471 48.2842 188.414L22.6429 155.562H23.9824V187.336C23.9824 189.112 23.0894 190 21.3035 190Z" fill="#FF015C"/>
<path d="M69.5778 190C67.7918 190 66.8988 189.112 66.8988 187.336V149.664C66.8988 147.888 67.7918 147 69.5778 147H93.0504C93.8796 147 94.5281 147.243 94.9958 147.729C95.4848 148.194 95.7293 148.839 95.7293 149.664C95.7293 151.44 94.8363 152.327 93.0504 152.327H72.2567V165.646H85.0773C86.8633 165.646 87.7563 166.534 87.7563 168.31C87.7563 170.086 86.8633 170.973 85.0773 170.973H72.2567V187.336C72.2567 189.112 71.3637 190 69.5778 190Z" fill="#FF015C"/>
<path d="M105.02 190C104.106 190 103.426 189.789 102.979 189.366C102.554 188.922 102.341 188.245 102.341 187.336V149.727C102.341 148.797 102.554 148.12 102.979 147.698C103.426 147.275 104.106 147.063 105.02 147.063C105.956 147.063 106.636 147.275 107.062 147.698C107.487 148.12 107.699 148.797 107.699 149.727V187.336C107.699 188.245 107.487 188.922 107.062 189.366C106.636 189.789 105.956 190 105.02 190Z" fill="#FF015C"/>
<path d="M123.645 190C121.859 190 120.966 189.112 120.966 187.336V149.664C120.966 147.888 121.859 147 123.645 147C124.559 147 125.452 147.529 126.324 148.586L151.965 181.438H150.626V149.664C150.626 147.888 151.519 147 153.305 147C155.091 147 155.984 147.888 155.984 149.664V187.336C155.984 189.112 155.091 190 153.305 190C152.348 190 151.455 189.471 150.626 188.414L124.984 155.562H126.324V187.336C126.324 189.112 125.431 190 123.645 190Z" fill="#FF015C"/>
<path d="M171.919 190C171.005 190 170.325 189.789 169.878 189.366C169.453 188.922 169.24 188.245 169.24 187.336V149.727C169.24 148.797 169.453 148.12 169.878 147.698C170.325 147.275 171.005 147.063 171.919 147.063C172.855 147.063 173.535 147.275 173.96 147.698C174.386 148.12 174.598 148.797 174.598 149.727V187.336C174.598 188.245 174.386 188.922 173.96 189.366C173.535 189.789 172.855 190 171.919 190Z" fill="#FF015C"/>
<path d="M200.813 190C199.92 190 199.25 189.778 198.804 189.334C198.357 188.89 198.134 188.224 198.134 187.336V152.391H185.76C184.867 152.391 184.197 152.169 183.751 151.725C183.304 151.281 183.081 150.615 183.081 149.727C183.081 148.839 183.304 148.173 183.751 147.729C184.197 147.285 184.867 147.063 185.76 147.063H215.866C216.759 147.063 217.429 147.285 217.875 147.729C218.322 148.173 218.545 148.839 218.545 149.727C218.545 150.615 218.322 151.281 217.875 151.725C217.429 152.169 216.759 152.391 215.866 152.391H203.492V187.336C203.492 188.182 203.258 188.837 202.79 189.302C202.344 189.767 201.685 190 200.813 190Z" fill="#FF015C"/>
<path d="M241.014 190C236.145 190 232.541 188.848 230.202 186.544C227.885 184.218 226.726 180.635 226.726 175.794V149.664C226.726 148.776 226.949 148.11 227.396 147.666C227.842 147.222 228.512 147 229.405 147C230.298 147 230.968 147.222 231.414 147.666C231.861 148.11 232.084 148.776 232.084 149.664V175.794C232.084 178.056 232.35 179.831 232.881 181.121C233.434 182.411 234.359 183.33 235.656 183.88C236.953 184.408 238.739 184.673 241.014 184.673H248.668C250.943 184.673 252.729 184.408 254.026 183.88C255.323 183.33 256.237 182.411 256.768 181.121C257.321 179.831 257.598 178.056 257.598 175.794V149.664C257.598 148.776 257.821 148.11 258.267 147.666C258.714 147.222 259.383 147 260.276 147C261.169 147 261.839 147.222 262.286 147.666C262.732 148.11 262.955 148.776 262.955 149.664V175.794C262.955 180.635 261.797 184.218 259.479 186.544C257.162 188.848 253.558 190 248.668 190H241.014Z" fill="#FF015C"/>
<path d="M278.559 190C276.773 190 275.88 189.112 275.88 187.336V149.664C275.88 147.888 276.773 147 278.559 147C279.728 147 280.706 147.571 281.493 148.712L296.546 171.227L295.398 171.417L310.578 148.712C311.301 147.571 312.386 147 313.831 147C315.277 147 316 147.888 316 149.664V187.336C316 189.112 315.107 190 313.321 190C311.535 190 310.642 189.112 310.642 187.336V154.991L312.301 155.562L298.906 175.159C298.119 176.301 297.035 176.872 295.653 176.872C294.696 176.872 293.824 176.301 293.038 175.159L279.643 155.562L281.238 156.006V187.336C281.238 189.112 280.345 190 278.559 190Z" fill="#FF015C"/>
<path d="M4.85384 113.705C0.32359 111.962 -1.03549 108.869 0.776615 104.426L41.2091 5.56716C42.908 1.85572 45.5695 0 49.1937 0L49.5335 0C53.2143 0.168703 55.7059 2.02443 57.0084 5.56716L98.1205 104.426C99.9326 108.869 98.6301 111.962 94.2131 113.705C89.7395 115.448 86.6249 114.155 84.8695 109.825L75.6957 87.725L22.7767 87.725L14.0276 109.825C12.2721 114.211 9.21421 115.505 4.85384 113.705ZM28.3829 73.554L69.8347 73.554L48.6841 22.4374L28.3829 73.554Z" fill="white"/>
<path d="M197.506 114.717C195.637 115.898 193.853 116.264 192.154 115.814C190.455 115.364 189.011 114.211 187.822 112.355L161.49 68.8304H137.706L137.706 107.294C137.706 112.018 135.328 114.38 130.571 114.38C125.814 114.38 123.436 112.018 123.436 107.294L123.436 7.08548C123.436 2.36183 125.814 0 130.571 0L170.324 0C180.687 0 188.615 2.75547 194.108 8.2664C199.657 13.7211 202.432 21.5938 202.432 31.8847V36.9457C202.432 45.8869 200.337 53.0286 196.146 58.3708C191.956 63.6568 185.897 66.9465 177.969 68.2399L200.224 105.101C202.376 109.038 201.47 112.243 197.506 114.717ZM137.706 54.6594L170.324 54.6594C176.78 54.6594 181.367 53.3098 184.085 50.6106C186.803 47.9113 188.162 43.3564 188.162 36.9457V31.8847C188.162 25.5302 186.803 21.0034 184.085 18.3042C181.367 15.5487 176.78 14.171 170.324 14.171L137.706 14.171V54.6594Z" fill="white"/>
<path d="M258.409 114.38C248.726 114.38 241.166 112.44 235.73 108.56C230.35 104.68 226.981 98.6906 225.621 90.5929C225.395 88.1186 225.905 86.2629 227.15 85.0258C228.396 83.7886 230.208 83.17 232.587 83.17C234.965 83.17 236.692 83.7324 237.768 84.8571C238.901 85.9817 239.665 87.725 240.062 90.0868C240.911 93.967 242.723 96.6381 245.498 98.1002C248.329 99.506 252.633 100.209 258.409 100.209H282.873C290.178 100.209 295.133 98.9155 297.737 96.3288C300.399 93.6858 301.73 88.7934 301.73 81.6517C301.73 74.3975 300.371 69.449 297.652 66.806C294.934 64.1067 290.008 62.7571 282.873 62.7571H261.807C251.104 62.7571 243.148 60.1703 237.938 54.9968C232.785 49.7671 230.208 41.8381 230.208 31.2098C230.208 20.6379 232.757 12.7932 237.853 7.67593C243.006 2.55864 250.934 0 261.637 0L281.853 0C290.857 0 297.907 1.8276 303.004 5.48281C308.157 9.13802 311.413 14.7333 312.772 22.2687C313.112 24.6867 312.659 26.5424 311.413 27.8358C310.167 29.073 308.299 29.6915 305.807 29.6915C303.542 29.6915 301.843 29.1011 300.71 27.9202C299.578 26.7392 298.842 25.0241 298.502 22.7748C297.596 19.4569 295.869 17.2076 293.32 16.0267C290.772 14.7895 286.95 14.171 281.853 14.171L261.637 14.171C254.842 14.171 250.283 15.38 247.961 17.798C245.639 20.1599 244.479 24.6305 244.479 31.2098C244.479 37.8455 245.668 42.4004 248.046 44.8747C250.425 47.349 255.011 48.5861 261.807 48.5861H282.873C294.028 48.5861 302.324 51.2854 307.761 56.6838C313.254 62.0823 316 70.4049 316 81.6517C316 92.8423 313.282 101.109 307.846 106.451C302.409 111.737 294.085 114.38 282.873 114.38H258.409Z" fill="white"/>
</svg>
